<?xml version="1.0" standalone="no"?>
<!DOCTYPE svg PUBLIC "-//W3C//DTD SVG 20010904//EN"
 "http://www.w3.org/TR/2001/REC-SVG-20010904/DTD/svg10.dtd">
<svg version="1.0" xmlns="http://www.w3.org/2000/svg"
 width="1800.000000pt" height="1800.000000pt" viewBox="0 0 1800.000000 1800.000000"
 preserveAspectRatio="xMidYMid meet">
<metadata>
Created by potrace 1.11, written by Peter Selinger 2001-2013
</metadata>
<g transform="translate(0.000000,1800.000000) scale(0.100000,-0.100000)"
fill="#000000" stroke="none">
<path d="M6393 14223 c-20 -8 -15 -44 9 -70 12 -13 19 -26 15 -29 -3 -4 -49
-6 -102 -6 -82 0 -109 5 -189 33 -99 35 -126 34 -126 -5 0 -20 10 -28 68 -51
37 -15 110 -51 162 -80 141 -79 359 -169 495 -205 66 -17 130 -38 142 -46 12
-8 32 -14 43 -14 56 0 310 -157 426 -262 96 -88 158 -196 169 -294 6 -53 4
-68 -18 -115 -25 -52 -38 -96 -90 -284 -15 -52 -30 -146 -37 -225 -6 -74 -13
-140 -15 -147 -7 -22 23 -475 39 -589 8 -60 20 -152 25 -204 6 -52 20 -133 32
-180 21 -80 21 -92 10 -215 -13 -140 -56 -366 -71 -375 -12 -8 -32 -66 -81
-235 -23 -76 -49 -151 -59 -165 -9 -14 -52 -95 -95 -180 -43 -85 -91 -175
-108 -200 -41 -60 -166 -216 -302 -375 -61 -71 -131 -159 -155 -195 -106 -157
-164 -203 -277 -217 -45 -5 -55 -4 -48 7 6 10 4 12 -9 7 -10 -4 -39 4 -69 19
-48 24 -50 25 -33 5 l19 -21 -31 11 c-17 6 -55 31 -85 57 -84 72 -480 363
-550 404 -34 20 -87 52 -118 72 -71 45 -89 46 -89 6 0 -16 -2 -30 -5 -30 -2 0
-28 15 -57 34 -62 39 -214 116 -301 152 -34 14 -101 44 -149 65 -48 22 -93 37
-99 33 -11 -6 -8 -44 5 -75 5 -11 -29 2 -99 36 -193 96 -380 145 -550 145
-125 0 -129 -6 -54 -74 28 -25 49 -46 46 -46 -2 0 -56 12 -118 27 -106 24
-128 26 -307 24 -197 -3 -331 -22 -339 -48 -3 -7 15 -34 40 -60 48 -53 152
-203 140 -203 -12 0 -76 24 -90 33 -7 5 -13 5 -13 0 0 -4 -28 -9 -63 -10 -116
-5 -193 -23 -254 -60 -74 -44 -94 -63 -158 -148 -28 -38 -66 -85 -83 -104 -35
-37 -40 -51 -16 -51 25 0 94 -61 134 -120 79 -117 119 -225 101 -273 -9 -23
-15 -25 -118 -29 -170 -8 -202 -24 -349 -172 -116 -117 -128 -133 -329 -433
-8 -12 2 -25 44 -61 30 -26 95 -85 145 -132 51 -47 124 -103 164 -125 39 -22
72 -43 72 -47 0 -3 -24 -11 -52 -18 -74 -17 -124 -48 -193 -121 -78 -82 -128
-181 -195 -384 -29 -88 -59 -167 -66 -176 -22 -25 -18 -51 9 -47 12 1 36 -7
52 -18 98 -68 304 -154 370 -154 14 0 25 -2 25 -4 0 -3 -27 -30 -59 -61 -110
-105 -142 -193 -156 -435 -3 -58 -11 -122 -16 -144 -14 -51 0 -63 33 -29 35
37 118 190 154 283 22 57 30 69 32 51 8 -53 -42 -244 -80 -306 -20 -33 -23
-49 -9 -40 19 11 101 125 126 174 30 59 74 208 81 271 8 84 22 64 29 -45 9
-128 -4 -243 -40 -352 l-26 -79 -42 6 c-37 5 -216 -13 -242 -25 -5 -2 55 -3
135 -2 139 2 147 1 200 -25 30 -15 56 -25 58 -23 3 2 -19 19 -47 36 -28 18
-51 35 -51 39 0 3 11 17 25 30 40 38 92 139 119 234 32 110 41 163 41 254 0
39 2 72 5 72 3 0 6 -8 7 -17 1 -10 6 -61 12 -113 13 -106 2 -275 -24 -401 -21
-100 -42 -120 -47 -46 -2 20 -7 37 -12 37 -4 0 -5 -29 -1 -64 4 -42 3 -66 -4
-71 -6 -3 -9 -10 -6 -14 2 -5 -13 -51 -34 -102 -57 -136 -89 -293 -102 -502
-13 -197 -13 -198 49 -218 20 -6 85 -36 144 -67 l107 -55 -54 -106 c-30 -58
-86 -155 -125 -215 -39 -60 -70 -115 -68 -123 2 -8 23 -23 48 -33 25 -10 77
-32 115 -49 67 -29 70 -32 68 -62 -1 -18 -6 -42 -11 -53 -18 -37 -31 -79 -52
-166 -12 -47 -27 -98 -34 -115 -8 -16 -26 -61 -42 -99 -15 -39 -36 -78 -46
-88 -22 -22 -23 -38 -2 -38 8 0 57 14 108 30 51 17 130 37 175 45 136 24 315
80 526 164 109 44 200 79 201 78 0 -1 13 -23 28 -49 41 -71 46 -73 111 -49 31
12 66 21 79 21 38 0 186 73 251 124 l60 47 14 -30 c18 -38 30 -41 181 -48 121
-5 171 1 248 33 9 4 12 -13 12 -67 l0 -72 48 7 c26 4 79 11 118 16 97 13 150
32 284 103 95 50 129 75 197 143 44 46 96 108 114 138 19 31 38 56 44 56 6 0
27 -16 46 -36 18 -19 62 -56 97 -82 35 -26 90 -68 122 -94 32 -27 62 -48 68
-48 6 0 26 22 45 49 19 27 56 66 82 87 26 22 67 66 92 99 25 33 50 60 56 60 6
0 31 -25 55 -55 25 -30 52 -57 60 -58 19 -5 99 74 180 178 73 94 163 194 216
241 l35 30 32 -55 c17 -31 35 -59 41 -62 5 -3 13 -17 18 -30 5 -13 14 -24 19
-24 17 0 251 232 300 298 59 79 140 219 166 286 l18 48 32 -37 c47 -57 61 -47
118 80 133 298 187 484 190 654 1 56 5 101 8 101 3 0 20 -18 38 -40 17 -22 40
-40 50 -40 17 0 20 13 26 126 16 272 -13 459 -100 643 l-45 94 77 -7 c43 -4
87 -8 98 -9 46 -5 8 196 -69 358 -41 87 -148 256 -215 339 -40 50 -39 58 4 40
46 -19 59 -18 50 4 -5 9 -21 53 -37 97 -36 97 -98 221 -148 295 -54 79 -288
338 -415 459 -108 102 -274 225 -308 227 -10 1 -20 4 -24 7 -8 9 16 37 32 37
7 0 15 12 18 28 4 16 29 47 64 77 l58 50 -29 -48 c-48 -83 -24 -60 54 50 41
58 89 123 105 143 59 73 300 356 352 413 29 32 72 86 95 120 22 34 69 100 103
147 35 47 77 113 94 147 49 99 109 255 116 307 4 26 15 55 25 64 17 17 24 52
36 177 9 91 10 93 47 58 47 -45 252 -175 365 -232 112 -56 272 -114 358 -131
130 -24 237 -30 302 -16 34 7 62 10 62 7 0 -2 -42 -47 -94 -98 -136 -133 -236
-287 -304 -467 -87 -227 -114 -345 -137 -585 -35 -364 -3 -657 96 -890 49
-115 82 -165 170 -256 l67 -70 21 -115 c30 -167 68 -324 90 -376 11 -24 30
-79 42 -122 57 -205 269 -672 384 -848 74 -113 85 -143 87 -236 0 -27 5 -48
11 -48 6 0 42 31 81 69 83 80 124 103 237 132 96 25 189 21 277 -12 29 -10 76
-19 104 -19 48 0 55 3 93 43 23 24 54 73 69 110 l29 66 96 -87 c135 -121 281
-240 349 -284 31 -21 77 -51 102 -68 94 -64 317 -194 360 -210 34 -14 56 -33
93 -81 169 -226 317 -371 504 -497 182 -122 425 -225 558 -235 44 -4 122 -16
174 -27 76 -16 132 -20 291 -20 117 0 210 4 229 11 38 14 51 51 29 88 -8 14
-25 43 -37 63 l-23 38 71 -30 c67 -29 224 -70 321 -85 25 -4 74 -15 110 -26
104 -30 254 -39 475 -29 209 10 276 23 336 63 24 16 37 34 44 63 l10 41 60
-15 c78 -18 363 -11 448 12 61 17 151 58 180 84 32 29 21 67 -57 185 -41 62
-107 150 -146 197 l-71 84 88 23 c48 13 108 36 133 51 52 32 105 113 114 173
3 21 9 57 12 78 5 35 9 40 42 46 45 8 122 47 143 71 61 71 48 296 -28 463 -18
40 -33 74 -33 75 0 1 52 -8 116 -21 169 -33 425 -73 472 -73 73 0 73 11 -4
263 -128 423 -311 808 -479 1009 l-64 76 31 13 c53 22 70 79 62 201 -14 228
-94 462 -240 708 -55 94 -259 380 -380 535 -129 164 -442 459 -614 577 -44 30
-45 32 -46 84 0 42 -7 63 -35 108 -69 111 -296 360 -416 458 l-62 51 51 45
c94 85 117 146 78 209 -18 30 -122 109 -240 182 -291 181 -521 302 -650 345
-41 13 -138 36 -215 50 -77 14 -162 32 -190 41 -34 11 -130 19 -300 27 -137 6
-251 12 -253 14 -2 1 4 26 12 54 13 42 32 69 97 137 85 88 125 158 115 198 -7
26 -67 61 -85 50 -6 -3 -70 2 -143 11 -226 29 -495 -3 -740 -87 -96 -32 -333
-146 -459 -220 -40 -23 -135 -73 -213 -112 -78 -38 -172 -85 -211 -105 -69
-35 -297 -180 -365 -232 -19 -15 -113 -64 -209 -108 -95 -45 -189 -96 -210
-113 -81 -70 -206 -197 -255 -258 -89 -113 -197 -296 -220 -372 -5 -19 -75
-38 -166 -46 -115 -10 -212 17 -405 113 -241 118 -400 234 -470 341 -22 32
-55 78 -76 103 -109 133 -165 343 -163 620 0 137 6 183 44 395 23 132 48 273
54 313 6 40 16 76 22 80 7 4 14 62 18 142 4 74 14 182 22 239 14 93 18 197 10
256 -1 11 -15 56 -31 100 -26 71 -38 88 -112 162 -46 46 -83 88 -83 93 0 6 -7
10 -16 10 -9 0 -37 19 -64 43 -119 106 -822 386 -971 387 -28 0 -53 8 -69 20
-26 20 -35 22 -57 13z m315 -104 c34 -13 62 -26 62 -29 0 -3 -53 -7 -117 -8
l-118 -3 33 21 c31 19 36 29 33 58 -2 10 3 10 21 -1 13 -8 51 -25 86 -38z
m323 -141 c-9 -4 -25 -7 -36 -7 -17 -1 -18 1 -5 9 11 8 -3 10 -50 10 -132 -3
-200 0 -200 8 0 5 22 14 49 21 28 7 55 18 61 26 8 10 29 5 104 -24 64 -24 88
-38 77 -43z m95 -23 c20 -15 13 -18 -23 -9 -13 4 -23 10 -23 15 0 14 24 11 46
-6z m200 -100 c124 -62 165 -94 104 -81 -19 4 -73 10 -120 13 -71 5 -95 12
-148 41 -35 19 -61 39 -59 45 2 6 26 16 53 23 27 6 51 12 54 13 2 0 55 -24
116 -54z m-286 -15 c0 -5 -7 -7 -15 -4 -8 4 -15 8 -15 10 0 2 7 4 15 4 8 0 15
-4 15 -10z m487 -196 c39 -7 82 -18 96 -23 31 -12 78 -74 100 -130 15 -41 15
-43 -1 -37 -146 49 -199 70 -210 84 -27 36 -46 58 -79 93 l-35 37 29 -5 c15
-3 60 -11 100 -19z m161 -298 c71 -29 72 -30 72 -66 0 -59 -12 -130 -22 -130
-5 0 -26 17 -48 38 -31 29 -45 54 -64 115 -13 43 -21 77 -17 75 3 -2 39 -16
79 -32z m-41 -331 c24 -45 56 -85 66 -85 5 0 2 12 -7 28 -17 27 -17 27 2 5 14
-15 19 -38 20 -85 l2 -63 -36 40 c-46 52 -73 110 -75 160 -1 34 -2 36 -8 15
-8 -28 -5 -32 -30 50 l-10 35 30 -35 c16 -19 37 -48 46 -65z m-82 -312 c-3
-24 -11 -43 -16 -43 -6 0 -8 4 -5 8 3 5 -2 30 -10 57 -8 27 -11 57 -8 68 5 17
8 15 26 -14 15 -25 18 -42 13 -76z m149 52 c-4 -8 -8 -15 -10 -15 -2 0 -4 7
-4 15 0 8 4 15 10 15 5 0 7 -7 4 -15z m-51 -199 l-19 -71 -32 35 c-36 39 -36
40 -21 94 8 28 13 35 19 25 5 -7 12 -10 16 -6 4 4 2 13 -4 19 -7 7 -12 21 -12
33 0 17 6 14 36 -19 l36 -39 -19 -71z m-163 -160 c0 -12 -5 -7 -19 24 -11 24
-11 24 3 6 9 -11 16 -24 16 -30z m4270 -27 c-58 -28 -150 -69 -205 -91 -55
-22 -176 -80 -269 -129 -95 -50 -206 -101 -255 -116 -47 -14 -142 -48 -210
-75 -68 -26 -130 -48 -136 -48 -21 0 -409 -112 -436 -126 -21 -11 -81 -29
-234 -70 -26 -7 23 33 184 156 93 70 146 103 204 125 42 16 77 32 77 36 0 17
352 210 490 268 82 35 343 100 443 111 40 4 158 8 262 8 l190 1 -105 -50z
m-4182 -50 c28 -25 33 -35 27 -57 -4 -15 -8 -34 -10 -42 -1 -8 -6 -33 -10 -55
l-7 -40 -29 85 c-19 55 -27 95 -23 113 7 34 11 34 52 -4z m-131 -201 c-3 -8
-6 -5 -6 6 -1 11 2 17 5 13 3 -3 4 -12 1 -19z m133 -185 c0 -28 -4 -54 -9 -57
-20 -13 -54 44 -59 99 l-5 56 36 -23 c34 -21 36 -26 37 -75z m4560 -73 c80 -6
205 -25 277 -41 123 -27 365 -101 388 -119 6 -4 30 -15 55 -24 129 -45 404
-168 415 -186 3 -4 -16 -3 -41 1 -153 29 -717 41 -924 20 -58 -6 -181 -15
-275 -21 -703 -41 -1150 -84 -1465 -140 -63 -11 -122 -19 -130 -17 -26 5 62
44 181 81 63 19 125 39 139 44 14 5 46 13 72 16 26 4 66 10 90 15 24 5 111 22
193 39 83 16 179 34 215 38 36 4 67 8 70 9 123 30 283 40 603 38 142 -1 257 0
255 2 -2 2 -53 13 -113 24 -151 27 -468 37 -705 22 -102 -7 -196 -14 -210 -16
-14 -2 -54 -9 -90 -14 -36 -6 -76 -11 -90 -10 -56 1 114 42 220 53 25 3 79 9
120 15 175 23 364 30 645 23 132 -4 598 -68 660 -92 14 -5 25 -6 25 -1 0 5 19
7 43 5 58 -6 24 8 -73 31 -41 9 -122 30 -180 46 -225 61 -482 89 -832 90 -139
0 -293 -4 -343 -10 -49 -6 -142 -15 -205 -21 -63 -6 -124 -13 -135 -15 -11 -3
-6 2 11 9 16 8 82 24 145 36 63 12 139 28 169 35 77 20 145 30 280 41 41 3 77
8 80 11 7 7 292 -3 460 -17z m-4525 -247 c8 -28 15 -57 15 -65 0 -7 9 -33 20
-56 l20 -44 -45 49 c-35 39 -47 61 -59 115 -21 88 -20 92 9 71 15 -11 30 -39
40 -70z m2785 33 c8 -4 23 -18 33 -32 18 -25 18 -25 -36 -127 -30 -56 -74
-147 -98 -202 -60 -139 -82 -178 -158 -275 -152 -197 -308 -326 -539 -445
-117 -60 -149 -81 -139 -91 4 -4 26 -1 49 5 117 32 182 36 266 17 39 -9 84
-16 100 -16 49 0 143 -53 429 -241 178 -117 383 -220 451 -227 74 -7 72 10 -9
70 -163 121 -424 404 -521 563 -30 50 -63 104 -73 120 -11 17 21 -9 70 -57
105 -101 315 -270 436 -349 46 -31 124 -82 174 -115 111 -73 274 -155 374
-189 82 -27 109 -31 74 -12 -12 7 -36 26 -55 42 -18 17 -56 48 -83 70 -27 22
-57 47 -65 55 -9 8 -49 44 -89 80 -120 106 -206 197 -285 298 -11 15 -31 38
-43 52 -11 14 -45 55 -75 92 -29 37 -87 104 -128 149 l-75 83 75 -50 c41 -28
111 -70 155 -94 78 -42 154 -88 405 -245 234 -147 285 -177 384 -227 54 -27
137 -73 185 -103 111 -68 169 -97 175 -87 7 12 -4 24 -71 73 -33 24 -77 65
-98 89 -20 25 -44 54 -53 65 -9 11 -34 43 -56 70 -22 28 -42 52 -46 55 -3 3
-28 32 -55 65 -48 58 -148 157 -202 200 -14 11 -38 31 -53 45 -15 14 -53 48
-85 75 -68 58 -83 73 -190 170 -44 41 -91 83 -105 94 -41 34 -5 24 93 -25 90
-45 327 -195 417 -265 249 -190 410 -330 453 -393 35 -52 41 -57 52 -42 11 14
14 15 25 1 22 -26 43 -19 35 13 -7 29 -97 169 -140 217 -15 17 -50 62 -79 100
-137 183 -303 341 -501 479 -97 68 -99 71 -25 43 152 -58 365 -168 445 -232
22 -17 62 -46 89 -65 27 -18 92 -76 144 -127 83 -83 97 -93 110 -80 21 22 2
70 -82 207 -55 88 -96 140 -181 225 -60 61 -123 121 -140 133 l-30 21 135 1
136 0 41 -42 c98 -103 149 -214 167 -363 4 -27 9 -168 12 -312 6 -277 -2 -376
-36 -468 -11 -27 -22 -63 -26 -80 -9 -40 -43 -92 -89 -137 -64 -63 -256 -114
-450 -119 -103 -3 -365 39 -530 84 -5 2 -55 18 -110 37 -55 19 -102 35 -105
35 -3 1 -22 9 -44 18 -21 9 -40 17 -42 17 -5 0 -173 76 -298 134 -54 26 -126
66 -160 90 -33 24 -107 69 -164 101 -56 31 -109 66 -117 78 -16 23 -63 31 -83
15 -55 -46 -73 -167 -65 -443 12 -479 9 -821 -12 -995 -2 -19 -6 -62 -10 -95
-11 -104 -23 -164 -60 -290 -30 -101 -91 -234 -111 -242 -7 -3 -16 -13 -19
-23 -9 -27 -88 -45 -200 -45 -92 0 -106 3 -168 32 -94 45 -127 70 -127 97 0
12 -4 26 -9 32 -5 5 -35 81 -66 169 -53 150 -101 356 -92 393 5 21 106 -80
183 -183 106 -143 332 -382 370 -391 37 -9 43 2 28 51 -7 25 -18 74 -24 108
-12 71 -30 137 -42 153 -4 6 -24 53 -44 105 -27 71 -37 115 -41 180 -3 47 -2
89 3 92 5 3 43 -33 84 -80 88 -100 189 -199 198 -195 17 7 -29 167 -73 252
-38 75 -63 142 -93 252 l-28 105 100 -104 c103 -105 142 -129 126 -75 -4 15
-27 83 -50 152 -41 119 -43 132 -47 270 -8 226 19 395 83 522 43 86 28 100
-44 41 -52 -42 -131 -161 -163 -242 -11 -31 -25 -65 -29 -76 -10 -22 -21 -74
-35 -161 -3 -22 -8 -50 -10 -64 -2 -14 -9 -56 -15 -95 -12 -75 -67 -301 -77
-319 -4 -5 -8 -20 -9 -31 -1 -12 -11 -39 -22 -61 -12 -21 -31 -58 -43 -82 -12
-23 -33 -51 -47 -62 -44 -35 -77 -26 -198 54 -69 46 -123 66 -175 66 -34 0
-42 -5 -65 -40 -36 -54 -53 -139 -60 -306 -6 -131 6 -261 33 -357 4 -15 0 -18
-18 -15 -19 2 -28 19 -57 101 -18 54 -45 155 -60 225 -25 117 -27 145 -26 347
1 170 6 252 23 360 24 157 25 162 34 190 3 11 8 31 11 45 2 14 19 66 36 115
18 50 33 95 35 100 1 6 7 21 12 35 6 14 19 45 29 70 41 105 147 255 254 362
84 83 105 99 151 112 107 31 274 39 304 15 6 -4 31 -11 55 -15 l45 -7 -27 29
c-38 41 -227 143 -306 167 -75 22 -74 22 -156 8 -79 -13 -107 2 -35 18 30 7
68 12 84 12 27 -1 33 5 58 57 118 248 349 483 603 610 263 133 499 194 724
187 58 -1 112 -5 120 -9z m2600 -257 c52 -11 140 -29 195 -40 122 -24 213 -66
254 -118 17 -22 31 -44 31 -50 0 -16 -50 -46 -58 -35 -10 14 -110 84 -121 84
-4 0 -29 11 -55 25 -58 31 -196 89 -301 126 -94 34 -76 36 55 8z m-5332 -29
c6 -16 9 -30 7 -30 -5 0 -35 56 -35 65 0 15 19 -8 28 -35z m-129 -160 c16 -69
33 -141 36 -160 l6 -35 -15 32 c-8 18 -23 42 -34 53 -15 16 -20 42 -26 119 -3
55 -9 108 -12 118 -5 12 -4 15 4 8 5 -5 24 -66 41 -135z m248 67 c28 -39 30
-43 12 -44 -18 -2 -42 28 -78 95 -12 23 -12 23 12 8 13 -9 38 -35 54 -59z
m4805 -150 c42 -20 109 -56 148 -81 39 -25 94 -58 123 -72 138 -70 365 -218
492 -319 74 -60 199 -130 215 -120 37 23 -39 133 -199 291 -69 68 -171 157
-226 198 -55 41 -109 82 -120 91 -48 38 330 -161 425 -223 133 -88 298 -238
417 -379 31 -37 34 -47 29 -78 -4 -20 -14 -39 -22 -42 -12 -4 -201 22 -524 73
-47 7 -141 22 -210 33 -531 84 -594 91 -765 90 -124 -1 -290 13 -336 27 -13 4
-17 21 -18 92 -1 48 -4 111 -7 140 -6 48 -5 52 12 46 11 -4 24 -11 29 -15 6
-4 84 -42 175 -83 91 -42 178 -84 193 -92 33 -18 57 -12 57 14 0 25 -139 166
-334 340 -33 28 -57 52 -55 52 22 0 353 -150 464 -210 117 -63 241 -137 405
-242 50 -32 74 -33 78 -2 3 23 -61 87 -304 304 -21 19 -73 62 -114 95 -41 33
-84 67 -95 77 -11 9 -29 24 -40 33 -19 15 -19 15 5 6 14 -5 60 -25 102 -44z
m-4786 -44 c-7 -7 -26 7 -26 19 0 6 6 6 15 -2 9 -7 13 -15 11 -17z m-261 -277
c9 -82 19 -154 22 -159 3 -6 2 -7 -4 -4 -6 4 -13 22 -16 40 -3 19 -17 64 -32
100 -25 64 -26 68 -13 154 11 79 13 84 20 53 4 -19 14 -102 23 -184z m589 88
c25 -14 46 -27 46 -29 0 -2 -26 -1 -57 2 -49 5 -123 34 -123 49 0 2 20 4 44 4
28 0 60 -9 90 -26z m131 -104 c3 -6 -1 -7 -9 -4 -18 7 -21 14 -7 14 6 0 13 -4
16 -10z m116 -11 c96 -32 92 -39 -10 -16 -50 11 -91 24 -91 29 0 13 32 9 101
-13z m589 -99 c0 -12 -40 -34 -48 -26 -3 4 3 13 14 21 22 17 34 19 34 5z m90
-25 c-7 -9 -15 -13 -19 -10 -3 3 1 10 9 15 21 14 24 12 10 -5z m86 -1 c18 -14
18 -14 -6 -3 -31 14 -36 19 -24 19 6 0 19 -7 30 -16z m-1717 -280 c-11 -63
-23 -114 -26 -114 -2 0 -1 26 3 59 3 32 1 89 -5 127 -12 71 -9 92 30 179 25
55 24 -117 -2 -251z m1540 256 c-14 -4 -38 -15 -52 -25 -26 -17 -34 -12 -19
11 7 12 39 21 77 22 14 0 13 -2 -6 -8z m3877 -252 c55 -58 149 -211 172 -278
12 -36 31 -107 43 -159 11 -52 22 -98 25 -102 3 -5 16 -61 30 -126 21 -96 26
-154 30 -310 4 -182 1 -233 -29 -378 -3 -11 -8 -37 -11 -59 -15 -83 -111 -188
-191 -211 -77 -21 -117 -26 -304 -33 -124 -5 -197 -3 -250 6 -78 13 -428 109
-446 122 -5 4 -80 38 -165 75 -164 71 -214 96 -457 232 l-153 86 -1 51 c0 28
-2 84 -4 125 l-3 75 25 -35 c58 -78 289 -291 368 -338 121 -73 225 -123 225
-109 0 7 -62 81 -137 163 -148 163 -214 247 -287 368 -26 43 -64 102 -84 130
-43 62 -35 56 137 -109 132 -128 158 -150 446 -384 276 -225 435 -340 548
-397 56 -29 106 -53 110 -53 15 0 6 43 -14 68 -11 15 -77 87 -146 159 -149
158 -255 284 -383 459 -134 181 -129 174 -99 148 129 -113 254 -217 299 -250
218 -161 326 -234 475 -319 94 -53 175 -101 180 -105 16 -14 50 -5 53 13 2 10
-33 58 -85 115 -48 54 -133 150 -188 212 -55 63 -131 149 -170 191 -38 41 -97
111 -130 153 -33 43 -79 102 -102 131 -24 28 -43 55 -43 59 0 13 146 -105 330
-268 44 -38 270 -229 339 -285 64 -52 209 -151 222 -151 30 0 4 101 -57 222
-50 99 -190 303 -297 433 -111 135 -221 242 -350 340 -54 41 -96 75 -94 75 3
0 60 -20 128 -44 202 -72 408 -194 603 -358 63 -54 120 -98 125 -98 34 0 10
65 -68 182 -128 194 -364 423 -579 563 -33 22 -60 41 -58 42 6 6 195 -82 304
-141 167 -91 250 -131 259 -123 13 14 -98 200 -141 236 -9 8 -16 20 -16 28 0
19 26 4 66 -39z m-5547 -186 l-13 -57 -8 73 c-6 62 -5 78 10 100 l17 26 3 -42
c2 -24 -2 -69 -9 -100z m6851 -26 c52 -39 100 -75 106 -81 6 -5 36 -32 67 -58
46 -40 189 -183 282 -282 51 -55 184 -229 300 -394 40 -57 49 -72 87 -140 11
-20 31 -54 44 -76 12 -22 37 -74 54 -115 17 -41 38 -90 46 -108 32 -70 66
-228 71 -332 8 -169 -15 -176 -190 -61 -56 38 -113 74 -127 81 -14 7 -47 30
-75 51 -60 44 -137 90 -185 109 -19 7 -73 31 -120 53 -84 39 -136 57 -280 97
l-75 21 0 104 c0 111 4 116 49 66 21 -23 46 -27 63 -10 15 15 -47 140 -155
311 -97 154 -188 278 -307 417 -85 101 -87 103 -40 70 131 -93 322 -281 471
-464 53 -66 110 -133 126 -150 16 -16 57 -66 91 -110 115 -149 176 -196 193
-150 10 25 -2 54 -75 182 -99 175 -145 242 -261 387 -70 87 -104 138 -105 155
0 19 -6 27 -23 29 -13 2 -71 51 -135 115 -110 109 -318 295 -367 329 -42 29
91 -33 168 -79 84 -49 139 -92 232 -178 36 -34 94 -88 129 -121 54 -51 252
-277 331 -378 14 -18 66 -82 116 -142 49 -60 101 -124 113 -142 18 -26 29 -32
50 -30 24 3 26 6 23 42 -6 66 -45 140 -180 346 -133 202 -380 483 -592 674
-87 79 -55 64 80 -38z m-6946 -43 c-3 -32 -8 -74 -11 -93 -6 -31 -7 -28 -14
30 -5 48 -3 72 7 93 8 15 16 27 19 27 2 0 1 -26 -1 -57z m5876 48 c0 -10 247
-146 265 -146 15 -1 89 -51 200 -136 166 -128 325 -326 429 -537 69 -141 87
-199 92 -310 3 -73 -10 -121 -46 -168 -25 -31 -103 -62 -202 -79 -51 -9 -115
-23 -143 -31 -28 -7 -66 -11 -85 -8 -19 3 -107 8 -195 10 -88 2 -188 6 -222
10 l-61 7 28 39 c16 22 30 44 32 49 2 6 23 2 51 -10 68 -29 245 -80 295 -85
33 -3 45 0 49 11 7 17 -42 67 -230 233 -95 84 -107 98 -107 127 0 31 12 43 24
24 12 -19 603 -325 630 -326 5 0 16 15 23 33 l13 32 -103 122 c-98 116 -219
230 -432 403 -152 124 -153 125 -160 179 l-7 49 29 -18 c149 -97 498 -381 665
-540 77 -75 88 -82 104 -70 17 12 17 17 5 52 -8 21 -47 99 -87 175 -78 148
-196 314 -278 393 -172 165 -283 263 -371 329 -55 41 -125 97 -155 125 -30 28
-58 51 -62 51 -5 0 -8 5 -8 10 0 6 5 10 10 10 6 0 10 -4 10 -9z m-9375 -246
c50 -70 113 -201 156 -329 24 -68 30 -100 25 -132 -4 -30 -1 -47 8 -57 11 -11
10 -17 -5 -36 l-19 -23 -52 22 -53 22 4 81 c7 173 -53 418 -127 517 -23 32
-24 33 -3 15 13 -11 43 -47 66 -80z m317 0 c11 -22 29 -51 38 -65 10 -14 40
-81 68 -150 28 -69 58 -143 68 -165 18 -42 23 -108 10 -137 -5 -11 -1 -23 13
-35 24 -20 27 -50 6 -77 -10 -13 -27 -18 -64 -18 -60 0 -77 8 -60 28 9 11 8
20 -5 39 -13 20 -14 28 -4 44 9 15 9 25 1 43 -6 13 -14 61 -17 108 -6 83 -46
273 -66 310 -5 10 -21 53 -34 96 l-25 79 25 -30 c14 -16 34 -48 46 -70z m198
-45 c24 -41 56 -93 72 -115 29 -42 91 -201 113 -290 10 -41 10 -53 -1 -63 -19
-17 -18 -28 5 -51 17 -17 18 -24 8 -50 -10 -28 -15 -31 -56 -31 -56 0 -97 37
-86 79 8 32 8 37 -5 136 -5 44 -12 104 -15 134 -4 30 -9 60 -13 65 -3 6 -7 18
-9 26 -2 13 -77 222 -98 275 -16 38 41 -39 85 -115z m-625 -17 c39 -65 92
-209 111 -304 l18 -85 -22 -22 c-16 -16 -27 -19 -42 -14 -19 7 -22 18 -26 92
-8 159 -34 257 -97 361 -17 30 -38 68 -45 84 -10 25 -5 22 33 -20 25 -27 56
-69 70 -92z m290 12 c66 -136 145 -335 152 -381 3 -26 1 -44 -6 -48 -17 -11
-13 -63 6 -70 12 -5 14 -9 5 -18 -7 -7 -12 -20 -12 -30 0 -19 -11 -22 -47 -12
-15 4 -23 14 -23 28 0 12 -5 27 -12 34 -9 9 -9 15 0 24 16 16 15 55 -2 65 -8
5 -17 42 -23 103 -6 52 -13 104 -16 115 -18 68 -79 274 -87 295 -23 57 22 -16
65 -105z m560 -99 c21 -50 53 -123 71 -162 47 -104 57 -144 39 -164 -20 -22
-19 -39 2 -62 14 -16 15 -23 5 -38 -7 -11 -12 -27 -12 -35 0 -21 -37 -19 -67
5 -14 11 -30 17 -36 13 -5 -3 0 8 13 24 18 25 20 34 11 52 -7 11 -16 21 -21
21 -6 0 -10 34 -10 78 0 97 -17 166 -75 317 -26 66 -49 127 -52 135 -2 8 18
-9 45 -39 34 -37 60 -80 87 -145z m124 24 c33 -63 73 -157 90 -209 17 -52 38
-105 46 -118 14 -21 14 -25 0 -39 -18 -19 -19 -36 -3 -52 18 -18 56 -14 68 7
10 20 4 51 -10 51 -13 0 -20 27 -26 98 -3 37 -14 104 -24 149 -18 74 -32 115
-85 238 l-17 40 27 -25 c36 -33 144 -198 188 -285 51 -101 85 -207 70 -212
-19 -7 -16 -60 3 -67 15 -6 15 -8 0 -25 -25 -27 -97 -33 -114 -9 -17 24 -37
23 -60 -2 -21 -23 -92 -40 -92 -22 0 6 -10 20 -22 31 -20 19 -20 22 -5 39 19
21 22 48 7 57 -5 3 -10 41 -10 84 0 102 -38 251 -90 356 -58 118 -10 49 59
-85z m290 35 c102 -165 213 -421 204 -469 -5 -24 -10 -26 -53 -26 -57 0 -78
18 -58 49 10 17 10 25 0 41 -6 11 -12 32 -12 47 -1 65 -81 299 -150 433 -47
93 -8 50 69 -75z m2180 -9 c-24 -24 -30 -26 -25 -11 4 11 14 44 21 73 21 78
30 84 33 23 3 -50 1 -57 -29 -85z m3781 13 c63 -16 129 -29 147 -29 17 0 34
-4 37 -8 3 -5 8 -78 11 -163 4 -85 13 -210 20 -279 8 -69 17 -152 20 -185 3
-33 10 -91 16 -130 15 -90 4 -574 -16 -700 -13 -84 -30 -222 -40 -325 -8 -85
-28 -133 -65 -158 -33 -22 -41 -23 -150 -17 -205 11 -321 30 -425 70 -22 9
-48 18 -59 22 -108 35 -489 276 -672 426 -10 8 -34 28 -52 42 -17 15 -29 31
-26 37 4 5 15 1 28 -10 26 -24 398 -270 447 -296 36 -19 69 -17 69 4 0 11
-111 133 -205 225 -50 49 -84 94 -140 185 l-27 45 58 -56 c49 -47 261 -226
477 -403 121 -98 277 -193 277 -167 0 10 -44 67 -113 145 -29 32 -72 83 -97
112 -25 30 -80 95 -123 146 -142 168 -169 202 -256 328 -85 124 -194 310 -186
318 11 11 317 -288 737 -719 90 -92 219 -182 236 -164 7 7 -102 221 -176 345
-25 41 -96 152 -157 245 -152 231 -250 389 -323 520 -84 152 -287 563 -281
570 3 2 38 -41 79 -98 100 -138 145 -196 285 -362 66 -78 165 -195 220 -260
114 -135 197 -220 301 -310 68 -57 154 -105 154 -84 0 5 -42 73 -93 151 -51
79 -151 251 -222 383 -245 457 -315 589 -311 592 1 2 30 -29 64 -69 67 -80
205 -216 322 -318 41 -36 116 -104 168 -151 129 -121 242 -196 242 -161 0 19
-21 77 -37 101 -9 14 -36 67 -58 116 -23 50 -67 135 -99 190 -70 120 -83 142
-126 220 -18 33 -44 77 -57 97 -12 21 -23 40 -23 42 0 3 19 -2 43 -10 23 -8
94 -29 157 -45z m-5757 -102 c64 -99 96 -175 122 -287 12 -47 11 -56 -1 -63
-8 -4 -14 -15 -14 -22 0 -23 -27 -18 -33 6 -3 11 -15 23 -26 26 -17 4 -21 13
-21 50 0 82 -30 199 -90 351 -11 30 -16 51 -11 48 5 -4 39 -52 74 -109z
m-1887 16 c47 -71 83 -158 77 -184 -5 -16 -11 -18 -42 -13 -20 4 -37 8 -39 9
-2 2 -7 33 -13 69 -5 37 -17 91 -27 121 -29 86 -14 85 44 -2z m160 -31 c67
-99 101 -199 66 -196 -6 1 -23 2 -37 3 -32 1 -55 54 -55 125 0 31 -10 75 -25
111 -27 67 -18 60 51 -43z m188 -75 c64 -108 64 -109 48 -137 -14 -24 -22 -28
-42 -23 -36 8 -40 12 -40 33 0 10 -6 20 -14 23 -8 3 -15 14 -15 24 0 10 -1 40
-2 67 0 28 -11 79 -24 115 l-24 66 25 -30 c13 -16 53 -79 88 -138z m3418 137
c-3 -18 -7 -22 -13 -13 -4 7 -3 19 3 26 15 18 16 17 10 -13z m-1713 -85 c55
-73 85 -129 112 -208 21 -59 25 -101 10 -101 -5 0 -13 -9 -16 -20 -9 -29 -52
-26 -81 6 -21 21 -24 35 -24 96 0 82 -20 166 -60 255 -25 55 -26 62 -10 50 11
-8 42 -43 69 -78z m1667 -8 c-15 -14 -16 -13 -10 19 10 57 18 68 22 31 2 -22
-2 -39 -12 -50z m-3856 3 c25 -30 53 -71 63 -89 17 -34 17 -35 0 -35 -54 1
-80 28 -87 91 -2 13 -10 39 -20 57 -25 48 -7 38 44 -24z m2520 -150 c74 -113
88 -151 68 -184 -11 -17 -19 -20 -48 -15 -19 4 -36 8 -37 9 -2 1 -5 34 -8 72
-4 71 -26 158 -52 208 -30 59 10 11 77 -90z m1239 20 c-10 -12 -14 -12 -20 -2
-14 22 -10 60 9 81 17 19 17 18 20 -23 2 -23 -2 -48 -9 -56z m-1386 -31 c55
-94 70 -130 57 -138 -6 -4 -10 -16 -10 -28 0 -20 0 -20 -15 -1 -13 17 -14 17
-15 2 0 -21 -20 -25 -20 -4 0 7 -6 19 -14 25 -10 8 -16 39 -19 94 -2 45 -6 92
-10 105 -3 12 -4 22 -2 22 2 0 23 -35 48 -77z m366 -133 l31 -59 -22 -3 c-38
-5 -78 3 -78 17 0 7 -7 18 -15 25 -8 7 -15 27 -15 44 0 17 -7 56 -14 86 l-15
55 49 -53 c26 -30 62 -80 79 -112z m-2592 104 c-3 -3 -12 -4 -19 -1 -8 3 -5 6
6 6 11 1 17 -2 13 -5z m149 -29 c149 -36 361 -106 530 -176 197 -82 231 -87
524 -85 135 2 261 6 280 10 19 3 100 8 180 10 80 3 217 14 305 26 88 12 203
21 255 21 52 0 251 -2 442 -3 306 -3 345 -1 335 12 -6 8 -1 6 12 -5 32 -28
111 -27 179 3 29 13 58 20 64 16 6 -4 17 1 24 10 10 15 12 5 8 -61 -3 -43 -9
-104 -15 -136 -7 -42 -7 -62 1 -72 8 -10 6 -24 -10 -55 -12 -23 -19 -48 -16
-56 3 -8 -12 -37 -33 -65 -45 -59 -113 -174 -167 -279 -21 -41 -48 -92 -61
-113 -13 -20 -25 -50 -27 -65 -2 -15 -9 -40 -15 -57 -7 -19 -12 -170 -15 -420
-2 -214 -6 -401 -9 -415 -3 -14 -8 -47 -11 -75 -3 -27 -8 -63 -11 -80 -58
-340 -136 -731 -171 -850 -39 -134 -52 -199 -43 -209 4 -5 4 -16 -1 -25 -10
-20 19 -76 40 -76 10 0 14 -9 13 -25 -1 -14 9 -59 22 -100 38 -119 63 -210 75
-277 6 -34 17 -78 26 -98 20 -48 54 -255 53 -318 l-2 -52 -7 45 c-18 107 -22
126 -27 140 -3 8 -7 20 -9 25 -26 93 -78 231 -131 349 -19 43 -37 92 -40 110
-2 17 -15 42 -28 55 -33 34 -51 16 -58 -57 -9 -80 -16 -136 -28 -220 l-10 -73
55 -57 c78 -81 103 -116 142 -200 43 -92 43 -105 1 -27 -18 33 -56 90 -84 126
-29 37 -50 69 -47 72 3 3 1 8 -5 12 -6 3 -11 1 -11 -4 0 -20 -20 -11 -30 13
-15 41 -25 37 -57 -27 -40 -82 -50 -127 -28 -127 10 0 14 5 10 13 -24 45 173
-192 203 -244 l25 -44 -26 30 c-31 36 -35 25 -6 -16 11 -16 18 -29 16 -29 -6
0 -119 148 -135 177 -9 16 -19 22 -32 18 -13 -4 -28 6 -53 37 l-35 42 -16 -38
c-17 -42 -41 -40 -32 3 3 15 -3 8 -16 -19 -113 -239 -209 -429 -227 -450 l-21
-25 19 55 c11 30 44 102 73 160 55 107 98 202 103 230 2 8 4 16 5 18 2 1 3 5
4 10 1 4 16 51 34 104 17 53 35 114 38 135 3 21 10 46 15 56 5 9 7 17 5 17 -3
0 -2 10 3 23 9 22 13 45 27 135 3 20 9 53 14 72 5 20 12 52 14 72 3 20 10 56
17 80 6 24 13 57 14 74 8 71 -8 62 -182 -100 -92 -86 -190 -182 -216 -213 -74
-86 -225 -244 -185 -193 19 25 64 86 98 135 90 128 213 275 343 410 53 55 57
57 42 25 l-16 -35 26 30 c14 17 30 45 36 63 7 22 16 32 27 30 18 -3 68 84 76
132 3 14 5 26 5 28 1 1 0 4 -1 5 -2 2 3 11 11 20 7 10 10 17 6 17 -4 0 -2 7 5
15 7 8 9 15 5 15 -4 0 -2 7 5 15 7 8 9 15 5 15 -4 0 -2 6 4 14 6 7 15 33 20
57 5 24 12 53 15 64 6 19 30 118 42 175 3 14 8 36 10 50 2 14 6 34 8 45 23
109 26 127 32 182 3 31 1 54 -6 58 -6 3 -8 11 -5 16 10 15 17 50 21 109 8 94
9 105 16 115 7 12 3 486 -5 530 -3 17 -8 59 -12 95 -7 70 -15 92 -15 42 0 -22
-5 -32 -15 -32 -9 0 -19 -10 -24 -22 -5 -13 -35 -57 -68 -98 -33 -41 -83 -111
-113 -155 -60 -89 -119 -166 -157 -204 -45 -46 -186 -223 -278 -350 -50 -68
-138 -187 -196 -265 -128 -172 -178 -245 -212 -313 -15 -28 -30 -53 -35 -55
-5 -1 -12 -21 -15 -43 -5 -28 -4 -34 3 -20 l9 20 1 -20 c1 -11 2 -200 2 -420
-1 -325 -4 -415 -17 -480 -8 -44 -20 -138 -26 -210 -29 -372 -34 -356 -35 110
-1 396 -4 504 -18 585 -7 39 -17 102 -21 134 -9 63 -57 50 -99 -27 -16 -29
-59 -95 -96 -147 -37 -52 -87 -126 -110 -165 -82 -137 -262 -387 -418 -580
-118 -145 -303 -343 -453 -482 -226 -211 -355 -309 -218 -167 41 43 86 92 100
109 13 16 63 70 110 120 135 141 286 314 416 475 60 75 122 155 143 185 14 20
59 80 100 133 89 113 147 199 179 262 42 83 94 175 124 219 24 35 26 43 12 37
-17 -6 -17 -5 -1 16 9 13 25 41 36 63 32 65 93 177 124 225 50 77 199 260 284
348 17 19 32 36 32 39 0 8 93 127 133 169 22 23 38 44 36 47 -7 10 95 147 109
147 6 0 12 6 12 13 0 11 64 114 79 127 3 3 23 30 43 60 21 30 50 73 65 96 30
43 53 81 53 87 0 17 -216 8 -348 -14 -166 -27 -657 -189 -877 -288 -203 -92
-202 -92 -125 -39 55 37 126 73 285 144 17 7 88 36 159 65 72 28 146 60 165
70 64 32 95 44 166 60 28 6 55 15 61 20 6 5 30 11 55 14 24 3 55 8 69 10 27 6
76 12 160 19 30 3 66 8 80 11 14 3 36 7 50 10 14 3 37 8 51 12 43 12 215 145
238 183 12 19 42 62 66 95 46 61 64 91 87 135 6 14 20 36 29 50 9 14 29 48 45
75 15 28 44 77 65 110 21 33 55 89 76 124 21 35 45 75 54 90 25 41 61 103 77
135 8 16 38 63 66 105 94 142 112 199 71 227 -12 9 -15 14 -6 14 8 0 11 3 7 7
-4 5 -13 1 -19 -7 -7 -8 -20 -16 -30 -18 -31 -5 -299 -122 -387 -169 -47 -25
-101 -58 -120 -73 -39 -30 -113 -70 -130 -70 -6 0 -66 -33 -133 -73 -169 -103
-284 -167 -297 -167 -14 0 -204 -82 -287 -124 -89 -45 -280 -159 -319 -190
-58 -47 -239 -187 -337 -261 -54 -41 -140 -111 -190 -157 -152 -136 -443 -431
-472 -479 -15 -24 -31 -46 -35 -49 -3 -3 -10 -14 -14 -25 l-8 -20 -9 20 c-8
17 -9 16 -4 -5 7 -38 -85 -322 -102 -315 -8 2 -12 1 -9 -4 5 -7 -78 -91 -90
-91 -2 0 0 8 5 18 19 37 56 184 66 264 3 20 10 49 16 65 12 31 22 103 14 103
-3 0 -40 -14 -83 -31 -127 -51 -140 -56 -332 -118 -362 -118 -381 -125 -434
-171 -18 -16 -36 -27 -40 -23 -3 3 -6 2 -6 -4 0 -5 -28 -41 -61 -79 -34 -38
-70 -88 -81 -111 -21 -48 -41 -57 -34 -15 3 15 7 50 10 78 9 93 63 198 148
287 35 35 53 47 76 47 35 0 55 20 50 52 -2 17 11 38 50 78 29 30 72 81 95 114
23 32 66 87 94 123 29 35 69 94 89 131 21 37 49 87 64 112 14 25 37 72 50 105
13 33 28 64 32 70 4 5 8 17 8 26 0 9 9 19 21 22 18 5 20 2 13 -26 -4 -18 -22
-80 -40 -139 -39 -123 -207 -467 -232 -474 -35 -11 -47 -22 -47 -44 0 -52 69
-51 71 1 0 14 20 45 48 74 25 28 65 75 89 105 23 30 45 57 50 58 4 2 7 9 7 17
0 7 7 18 16 25 38 32 134 243 171 375 7 27 12 52 12 68 1 10 5 16 10 12 5 -3
12 -1 16 5 10 16 25 12 25 -7 0 -9 -34 -118 -75 -242 -74 -221 -143 -380 -188
-432 -13 -15 -72 -48 -142 -79 -131 -57 -281 -135 -291 -151 -11 -18 5 -23 23
-8 10 8 29 20 43 26 103 45 139 60 170 68 9 3 45 17 65 26 11 4 55 22 97 39
43 16 86 34 95 39 15 8 37 17 63 26 3 1 12 5 20 8 13 6 39 14 140 41 8 3 34
11 58 20 23 8 42 13 42 10 0 -12 61 39 126 106 38 39 110 101 159 138 50 37
95 72 100 78 16 18 217 185 296 246 41 31 92 73 114 93 44 40 116 99 159 130
66 47 72 54 56 65 -22 14 -74 12 -175 -9 -67 -13 -123 -17 -220 -15 -71 2
-148 -1 -170 -6 -22 -4 -64 -11 -94 -15 -30 -4 -64 -10 -76 -15 -11 -4 -37 -8
-56 -8 -18 0 -54 -8 -79 -17 -25 -9 -54 -18 -65 -21 -11 -2 -60 -19 -110 -37
-94 -35 -148 -53 -250 -82 -55 -16 -101 -32 -285 -102 -64 -24 -371 -167 -400
-186 -8 -5 5 9 30 32 52 47 190 128 270 159 30 11 82 33 115 47 59 27 153 62
188 71 37 9 62 15 72 18 28 7 206 64 325 103 74 24 148 46 164 49 16 2 36 9
45 13 9 5 25 7 35 5 11 -1 65 6 120 18 56 11 111 22 124 24 13 3 20 9 17 14
-3 5 3 8 12 8 10 0 61 3 113 7 52 4 123 7 158 7 34 -1 60 3 57 8 -3 5 3 9 12
9 98 1 187 11 193 22 5 7 14 14 22 15 59 10 83 16 99 25 11 5 19 7 19 3 0 -3
6 -2 13 3 6 6 30 16 52 23 51 17 107 44 170 85 184 119 773 414 797 399 5 -3
19 2 31 13 12 10 34 25 49 33 15 7 36 21 46 30 10 9 55 37 100 61 45 24 82 46
82 49 0 7 -1 7 -220 14 -102 3 -194 7 -205 8 -11 1 -60 -1 -110 -5 -49 -4
-175 -9 -280 -12 -230 -7 -305 -11 -490 -30 -22 -2 -67 -7 -100 -10 -33 -3
-107 -12 -165 -20 -58 -8 -130 -17 -160 -20 -30 -3 -63 -8 -72 -11 -19 -6 -50
-12 -93 -19 -16 -3 -41 -7 -55 -10 -14 -3 -41 -7 -60 -10 -19 -3 -57 -10 -85
-15 -69 -13 -100 -18 -170 -25 -170 -17 -238 -26 -305 -40 -26 -5 -116 -20
-185 -30 -22 -4 -70 -15 -106 -26 -36 -10 -75 -19 -85 -20 -10 0 -14 -3 -8 -5
7 -3 55 2 108 11 53 8 124 15 158 15 35 1 83 5 108 11 72 15 90 18 175 25 44
3 83 8 87 10 3 2 37 7 75 9 64 5 162 21 398 65 86 16 142 25 230 36 11 1 36 5
55 7 19 3 60 8 90 12 l55 6 18 -83 c21 -98 58 -182 122 -273 l46 -67 -98 75
c-114 87 -242 207 -272 257 -28 47 -27 25 5 -68 29 -87 68 -160 123 -230 48
-60 60 -81 40 -66 -154 115 -262 208 -312 270 -28 33 -28 36 -12 54 9 10 15
29 13 42 -2 19 -9 23 -38 23 -29 0 -36 -4 -38 -23 -2 -13 3 -31 11 -40 9 -9
32 -55 53 -102 46 -103 94 -180 148 -239 l41 -43 -75 52 c-98 69 -189 140
-272 213 -58 52 -66 62 -57 79 13 24 6 43 -20 58 -17 8 -24 7 -41 -10 -26 -26
-25 -36 4 -61 14 -12 32 -40 41 -62 38 -95 159 -243 258 -315 32 -24 56 -46
54 -49 -3 -3 -38 12 -78 33 -92 49 -290 237 -363 344 l-51 75 -3 -43 c-7 -102
70 -250 207 -396 l46 -49 -54 29 c-75 40 -196 162 -264 266 -31 48 -57 91 -57
96 0 6 7 12 15 16 30 11 12 76 -21 76 -17 0 -44 -28 -44 -45 0 -7 6 -20 14
-28 8 -8 17 -39 20 -69 7 -82 73 -229 130 -292 6 -6 22 -25 36 -40 l25 -28
-45 22 c-55 28 -206 178 -283 282 -45 60 -56 83 -52 101 7 25 -15 57 -39 57
-33 0 -49 -57 -22 -79 8 -7 15 -40 18 -84 6 -97 35 -158 111 -236 34 -35 58
-61 52 -59 -190 99 -345 255 -345 346 0 44 -23 68 -54 56 -32 -12 -30 -68 3
-79 12 -4 21 -19 25 -45 15 -97 87 -232 169 -319 l42 -44 -74 39 c-99 53 -240
202 -298 318 -14 28 -34 62 -44 75 -31 39 -24 49 54 72 203 59 74 43 -248 -32
-22 -5 -51 -12 -65 -14 -14 -3 -54 -15 -90 -26 -36 -12 -74 -23 -86 -25 -11
-2 -63 -17 -115 -33 -52 -16 -98 -26 -103 -23 -9 5 49 26 101 37 11 3 63 21
115 41 51 20 156 54 233 76 77 22 154 45 170 52 17 7 75 24 129 36 66 16 107
31 124 47 14 13 30 23 36 24 30 1 78 10 141 24 39 9 84 18 100 21 17 3 62 12
100 21 39 8 80 16 93 19 12 2 32 6 45 8 12 3 38 8 57 11 56 11 100 33 100 50
0 19 -72 53 -225 105 -60 20 -153 58 -206 84 -52 25 -102 46 -110 46 -24 1
-210 67 -222 79 -6 6 -17 11 -23 11 -7 0 -16 5 -20 12 -5 7 -2 9 8 6 8 -4 64
-18 124 -33z m2575 -81 c27 -34 49 -65 49 -68 0 -3 -11 -6 -24 -6 -20 0 -29
10 -50 55 -13 30 -37 72 -52 92 l-28 38 28 -25 c15 -14 50 -53 77 -86z m679
26 c-5 -29 -8 -35 -9 -18 0 15 -6 30 -12 33 -6 5 -4 12 8 20 10 7 19 13 19 12
1 -1 -2 -22 -6 -47z m-584 -45 c9 -13 39 -36 67 -50 50 -24 50 -25 19 -25 -32
0 -59 21 -127 100 l-20 23 23 -12 c12 -6 29 -23 38 -36z m-2759 -79 c63 -41
94 -73 138 -146 5 -8 -7 -3 -28 13 -20 15 -65 46 -99 69 -66 44 -168 135 -168
150 0 10 57 -21 157 -86z m189 -8 c27 -24 67 -67 87 -96 l36 -52 -35 24 c-53
36 -219 217 -174 189 19 -12 58 -41 86 -65z m156 -16 c24 -11 52 -38 77 -75
l41 -57 -32 16 c-35 18 -138 112 -138 125 0 12 9 10 52 -9z m2969 -39 c-10
-17 -10 -16 -11 3 0 23 13 41 18 25 2 -6 -1 -18 -7 -28z m-3316 -113 c27 -27
46 -50 42 -50 -23 0 -69 35 -111 85 -47 54 -47 55 -14 36 18 -11 55 -43 83
-71z m585 34 c0 -2 -9 0 -20 6 -11 6 -20 13 -20 16 0 2 9 0 20 -6 11 -6 20
-13 20 -16z m1900 -30 c22 -15 39 -29 36 -31 -7 -7 -135 29 -153 43 -16 12
-13 13 30 14 35 0 58 -7 87 -26z m-150 -31 c19 -26 51 -58 70 -72 19 -13 28
-22 20 -19 -8 3 -40 13 -70 23 -59 19 -150 81 -150 102 0 9 15 13 48 13 45 0
49 -2 82 -47z m-2556 28 c3 -5 -1 -11 -9 -14 -9 -4 -12 -1 -8 9 6 16 10 17 17
5z m2048 -67 c5 -81 45 -168 109 -235 20 -21 35 -39 33 -39 -24 0 -121 65
-169 114 -60 60 -145 175 -145 195 0 6 -5 11 -10 11 -7 0 -9 -13 -6 -32 22
-131 29 -163 48 -205 11 -26 29 -60 39 -75 11 -14 19 -29 19 -33 0 -12 -93 58
-160 122 -64 60 -150 175 -150 201 0 6 15 13 33 16 75 12 126 18 182 22 32 3
60 6 61 7 1 1 27 2 57 2 l55 0 4 -71z m152 52 c3 -14 3 -31 0 -39 -6 -15 24
-81 58 -129 11 -16 16 -28 11 -28 -11 0 -54 30 -96 67 -31 27 -107 125 -107
137 0 4 26 8 106 14 15 1 24 -5 28 -22z m196 -21 c7 -25 28 -67 46 -93 19 -26
30 -48 24 -50 -28 -10 -250 149 -250 179 0 5 38 9 84 9 l83 0 13 -45z m-2309
-22 c33 -20 58 -38 56 -39 -2 -2 -39 8 -82 23 -71 23 -76 27 -60 39 24 18 18
20 86 -23z m-126 -32 c20 -21 54 -48 77 -58 23 -11 37 -22 32 -25 -27 -16
-254 60 -254 85 0 5 -5 5 -13 -2 -10 -8 -19 -7 -33 3 -17 13 -13 15 36 20 86
9 115 13 118 15 1 0 18 -17 37 -38z m3171 -6 c-4 -11 2 -15 22 -15 15 -1 41
-7 57 -14 28 -13 21 -14 -83 -17 -61 -2 -112 -3 -112 -2 0 3 112 62 119 63 2
0 1 -7 -3 -15z m2439 5 c3 -5 -3 -10 -15 -10 -12 0 -18 5 -15 10 3 6 10 10 15
10 5 0 12 -4 15 -10z m-5765 -95 l55 -35 -45 0 c-53 0 -170 24 -200 40 -21 11
-21 12 -3 32 10 11 34 28 53 38 l35 18 25 -29 c14 -15 50 -44 80 -64z m3724
-95 c20 -69 57 -195 82 -280 25 -86 58 -233 74 -330 17 -96 34 -191 39 -210 6
-19 13 -66 16 -104 3 -38 10 -88 15 -110 5 -23 11 -66 14 -96 3 -30 10 -84 15
-118 5 -35 7 -70 4 -78 -3 -7 2 -89 12 -182 22 -228 23 -440 2 -667 -28 -316
-54 -464 -102 -600 -54 -150 -135 -340 -181 -425 -52 -95 -177 -280 -190 -280
-6 0 -19 -18 -29 -40 -10 -22 -27 -47 -38 -57 -22 -20 68 137 119 208 28 38
134 239 134 253 0 5 -8 6 -75 6 -26 0 -35 4 -27 9 10 6 5 11 -19 20 -41 14
-52 14 -43 -1 5 -8 -6 -9 -41 -5 -26 4 -80 8 -119 9 -57 1 -61 2 -23 5 35 3
47 8 44 17 -6 15 65 27 143 24 l45 -1 -50 -7 -50 -7 42 -1 c23 -1 49 -5 59 -9
12 -5 15 -3 9 6 -10 17 70 5 102 -15 21 -13 22 -11 39 39 9 28 32 89 49 133
32 80 70 232 60 242 -20 21 -333 4 -438 -24 -28 -7 -53 -11 -56 -9 -2 3 2 5
10 5 11 0 11 2 1 9 -18 11 146 86 218 99 64 12 139 23 195 28 47 4 98 13 104
20 5 5 6 8 16 69 4 22 12 71 19 108 16 84 15 85 -90 63 -173 -36 -391 -123
-529 -212 -95 -60 -82 -32 24 52 120 96 263 173 397 215 55 17 116 37 137 45
20 8 46 14 57 14 19 0 20 7 20 110 0 91 -3 110 -15 110 -8 0 -15 4 -15 10 0 6
-9 6 -26 -1 -15 -5 -35 -7 -46 -3 -17 5 -19 3 -13 -15 3 -12 3 -21 -2 -20 -4
1 -17 -1 -28 -6 -11 -4 -63 -25 -116 -46 -52 -22 -98 -39 -102 -39 -8 0 -208
-119 -228 -137 -8 -7 -19 -13 -22 -13 -4 0 27 31 69 70 109 99 239 185 363
240 58 26 123 55 144 65 l37 19 1 95 c2 171 -1 252 -11 315 -5 33 -16 147 -25
251 -9 105 -17 204 -20 220 -2 17 -7 57 -10 90 -3 33 -13 101 -22 150 -18 108
-18 104 -9 135 5 18 5 21 -3 11 -8 -12 -11 -10 -15 10 -3 13 -13 56 -22 94 -8
39 -17 89 -18 112 -2 22 -11 52 -20 64 -9 13 -16 31 -16 39 0 18 -71 208 -96
257 -15 29 -15 35 1 78 10 25 21 42 25 38 4 -4 24 -64 44 -133z m5048 44 c20
-13 49 -44 63 -68 31 -53 94 -205 101 -243 3 -14 9 -33 13 -42 5 -9 9 -20 10
-26 1 -5 8 -33 16 -62 8 -28 24 -95 36 -150 11 -54 21 -102 23 -108 3 -12 14
-81 22 -145 3 -25 7 -135 9 -245 4 -172 2 -213 -15 -292 -11 -51 -20 -104 -20
-118 0 -15 -9 -45 -19 -68 -10 -23 -26 -59 -34 -79 -27 -66 -75 -69 -402 -24
-141 19 -342 79 -460 136 -150 73 -181 113 -228 297 l-33 130 24 -6 c13 -4 38
-25 55 -48 18 -22 54 -70 80 -104 59 -77 174 -173 282 -236 44 -25 90 -53 103
-61 21 -13 22 -13 16 4 -4 11 -10 24 -14 29 -4 6 -13 28 -20 50 -7 21 -42 87
-78 145 -36 58 -76 128 -89 157 -21 46 -22 55 -10 84 l13 33 22 -22 c12 -12
29 -22 37 -22 8 0 15 -6 15 -14 0 -31 274 -336 403 -449 47 -40 61 -48 68 -36
16 25 -2 86 -72 237 -16 34 -29 67 -29 73 0 17 -97 207 -134 264 -26 40 -128
252 -113 234 36 -40 187 -251 269 -374 59 -88 123 -179 143 -202 41 -48 75
-57 75 -20 0 35 -46 233 -69 300 -11 31 -18 57 -15 57 3 0 2 6 -3 13 -4 6 -9
19 -10 28 -1 9 -8 29 -14 45 -7 16 -14 37 -16 47 -5 27 -77 182 -146 317 -102
196 -243 475 -250 493 -12 33 3 16 51 -55 27 -40 78 -112 113 -159 35 -47 115
-160 178 -250 162 -233 257 -304 203 -151 -11 31 -41 127 -67 212 -43 141
-125 372 -145 411 -5 9 -20 46 -34 82 l-25 67 42 -21 c23 -12 59 -32 79 -45z
m-8982 26 c6 -11 32 -34 58 -50 44 -27 45 -29 22 -35 -14 -3 -58 1 -98 10 -40
8 -76 15 -80 15 -3 0 12 18 33 40 45 46 50 48 65 20z m5975 -5 c13 0 13 -27 0
-32 -17 -5 -49 23 -41 36 4 6 13 8 19 4 7 -4 17 -8 22 -8z m-2610 -20 c22 -2
58 -4 79 -4 22 -1 37 -3 35 -5 -3 -3 -67 -14 -144 -26 -77 -11 -151 -23 -165
-26 -14 -3 4 12 40 34 45 28 73 39 90 36 14 -3 43 -6 65 -9z m-3470 -102 c-32
-7 -60 -12 -62 -9 -2 2 8 17 22 34 l26 31 36 -21 36 -22 -58 -13z m599 -85
c44 -143 110 -277 169 -344 37 -42 38 -46 17 -39 -68 19 -253 176 -313 265
-17 25 -33 47 -36 50 -3 3 -12 16 -19 28 -11 20 -11 27 2 41 20 22 20 45 0 62
-14 11 -6 16 58 35 40 12 76 22 79 23 3 1 23 -54 43 -121z m10994 78 c40 -22
221 -206 291 -296 214 -272 242 -317 346 -555 102 -233 230 -657 265 -878 12
-76 2 -133 -28 -160 -50 -45 -347 -39 -517 11 -218 65 -520 177 -725 270
l-125 57 53 7 c48 5 62 2 138 -33 47 -22 102 -51 123 -64 21 -14 82 -41 136
-61 54 -19 106 -41 116 -48 25 -17 66 -9 72 15 6 22 -53 83 -175 182 -81 65
-93 100 -17 49 24 -16 94 -54 155 -84 60 -30 124 -64 142 -76 36 -26 270 -140
292 -143 64 -7 64 -1 0 67 -34 36 -89 101 -123 144 -34 42 -106 130 -161 195
-102 122 -117 164 -34 97 26 -20 82 -62 125 -91 43 -30 94 -67 113 -83 169
-134 200 -158 200 -150 0 36 -187 446 -253 555 -48 78 -138 259 -133 265 4 3
151 -142 186 -184 14 -16 47 -59 75 -94 72 -94 87 -110 102 -110 17 0 -15 83
-106 273 -88 183 -252 450 -358 584 -18 23 -55 75 -82 115 -27 40 -67 93 -89
118 -51 58 -76 107 -59 113 20 8 31 7 55 -7z m-5498 -44 c17 -59 53 -122 72
-128 20 -6 22 -36 9 -134 l-7 -55 -22 47 c-42 93 -98 291 -87 309 10 15 23 1
35 -39z m-1840 -1 c75 -32 180 -87 148 -77 -27 8 -128 24 -196 31 -45 5 -65
12 -70 24 -3 9 -14 22 -24 29 -10 7 -18 16 -18 20 0 17 92 2 160 -27z m-3898
-1 c-3 -20 1 -32 10 -35 10 -4 15 -23 16 -60 2 -94 79 -262 155 -342 17 -18
28 -35 26 -38 -3 -3 -34 14 -70 38 -79 53 -191 189 -248 302 -22 44 -42 86
-43 93 -2 8 24 25 67 42 89 37 93 37 87 0z m3008 -25 c69 -8 142 -15 163 -17
20 -1 37 -5 37 -9 0 -3 -71 -9 -157 -12 -164 -6 -237 -12 -288 -24 -16 -4 -34
-6 -39 -4 -5 1 -56 -5 -114 -14 -57 -9 -106 -14 -109 -11 -7 7 99 74 144 90
51 18 210 19 363 1z m8008 -34 c27 -22 60 -57 73 -78 12 -21 35 -54 50 -73 46
-60 129 -216 155 -290 56 -162 90 -378 81 -519 -5 -77 -10 -95 -43 -151 -56
-95 -124 -153 -209 -175 -16 -5 -34 -10 -40 -12 -5 -1 -62 -15 -125 -29 -159
-35 -291 -29 -475 21 -109 30 -225 51 -228 42 -1 -5 -26 -2 -57 6 -30 8 -68
18 -85 22 -28 7 -26 8 46 39 42 17 98 49 125 70 27 22 54 43 60 48 6 4 37 -1
70 -13 158 -56 197 -71 304 -118 125 -56 145 -55 117 4 -26 54 -176 250 -266
348 -75 81 -55 90 53 25 44 -28 90 -58 101 -68 11 -9 36 -26 55 -36 19 -10 40
-23 46 -29 62 -56 210 -166 243 -182 25 -12 28 19 5 65 -13 26 -47 94 -75 152
-57 119 -179 286 -302 416 -44 47 -77 87 -74 90 13 14 182 -96 300 -194 42
-36 109 -104 148 -151 38 -47 91 -107 117 -133 65 -66 75 -50 38 55 -47 133
-134 282 -281 480 -102 139 -117 157 -200 246 -59 64 -59 64 -20 41 122 -72
373 -310 477 -450 90 -122 138 -166 138 -125 0 29 -60 177 -96 238 -104 173
-174 268 -260 354 -100 99 -98 92 -27 102 6 0 34 -17 61 -38z m632 -77 c164
-97 295 -200 495 -389 34 -31 35 -35 10 -19 -100 61 -397 204 -424 204 -5 0
-48 51 -96 113 -48 61 -110 134 -139 160 l-51 48 50 -27 c28 -15 97 -55 155
-90z m-11825 63 c-11 -57 73 -246 161 -364 47 -63 51 -71 29 -63 -104 40 -263
210 -271 291 -2 19 -6 45 -9 59 -19 91 -20 87 22 98 68 18 75 16 68 -21z
m10345 -19 c30 -22 92 -74 136 -115 114 -102 144 -97 105 19 -12 35 -33 80
-46 101 l-26 37 39 0 c39 0 39 0 70 -73 17 -40 41 -122 53 -181 22 -102 22
-114 10 -238 -20 -206 -86 -392 -166 -473 -90 -90 -180 -148 -281 -182 -90
-30 -109 -33 -222 -33 -149 0 -248 14 -320 46 -30 13 -72 29 -95 35 -34 9 -38
13 -24 20 9 6 17 16 17 23 0 7 -52 66 -115 132 -64 65 -125 136 -135 156 l-20
36 48 -26 c26 -14 67 -40 92 -58 59 -42 259 -162 335 -201 67 -34 234 -97 280
-106 84 -15 65 48 -39 131 -39 31 -116 97 -171 146 -55 49 -130 113 -168 144
-142 113 -334 300 -412 403 -77 101 -78 103 -35 69 25 -19 47 -37 50 -40 3 -3
39 -32 80 -64 71 -57 124 -101 180 -150 14 -13 54 -45 90 -72 36 -27 120 -97
186 -155 108 -95 323 -261 404 -312 32 -20 50 -16 50 11 0 58 -426 636 -649
882 -77 84 -81 91 -41 63 25 -17 54 -40 65 -50 11 -10 58 -49 105 -86 47 -38
136 -116 199 -175 63 -59 127 -118 144 -132 29 -24 109 -105 302 -307 69 -72
91 -90 102 -82 20 17 16 32 -31 122 -75 145 -206 339 -417 622 -49 66 -51 68
-18 44 19 -14 50 -36 69 -50 19 -13 50 -38 70 -56 19 -17 53 -45 75 -61 55
-40 281 -268 316 -319 32 -46 55 -48 65 -8 4 16 -12 58 -55 142 -99 195 -211
346 -307 415 -31 22 -41 34 -32 40 21 13 31 10 88 -34z m-6251 6 c162 -39 275
-88 351 -153 57 -48 84 -81 66 -81 -4 0 -32 18 -64 39 -75 51 -342 174 -462
211 -56 18 9 8 109 -16z m-4289 -87 c6 -23 17 -62 24 -87 8 -25 17 -57 20 -72
4 -16 12 -28 20 -28 13 0 55 -48 91 -105 10 -16 28 -38 39 -48 33 -30 -42 14
-108 62 -79 59 -148 166 -165 256 -9 50 -4 59 38 62 28 2 31 -1 41 -40z m3966
31 c4 -7 3 -8 -4 -4 -7 4 -12 3 -12 -2 0 -6 -16 -19 -35 -31 -33 -19 -35 -19
-35 -2 0 34 69 66 86 39z m-536 -63 c74 -11 76 -13 51 -38 -21 -23 -26 -23
-253 -26 -127 -1 -234 -4 -238 -6 -3 -2 -37 -6 -76 -9 -38 -2 -131 -18 -207
-35 -203 -46 -274 -54 -299 -37 -19 14 -19 15 23 37 24 12 68 37 98 56 52 33
55 34 68 17 7 -10 13 -13 13 -7 0 6 15 14 33 17 17 3 41 8 52 11 33 8 247 34
300 37 65 4 377 -8 435 -17z m2882 -61 l48 -51 10 -169 c23 -349 117 -839 202
-1049 47 -115 119 -327 114 -332 -8 -8 -172 343 -246 527 -74 183 -93 243
-125 386 -22 97 -60 343 -64 409 0 11 -4 61 -7 112 -7 94 2 227 15 221 3 -2
28 -26 53 -54z m-1962 -117 c174 -96 396 -246 399 -269 1 -4 -34 13 -76 38
-121 72 -265 142 -350 170 -77 25 -111 44 -82 44 10 0 11 2 2 8 -7 4 -16 23
-19 40 -7 32 -6 32 22 22 16 -6 63 -30 104 -53z m-263 47 c-3 -4 -2 -15 4 -25
8 -15 4 -21 -18 -32 -16 -8 -39 -17 -53 -20 -35 -9 -143 -79 -213 -140 -58
-50 -74 -55 -63 -19 9 27 175 186 217 208 33 16 33 16 19 -1 -14 -17 -14 -17
8 -6 19 10 22 9 22 -6 0 -14 3 -14 21 5 11 12 24 20 30 17 5 -4 9 1 9 9 0 9 5
16 12 16 6 0 8 -3 5 -6z m-2557 -24 c0 -5 -12 -10 -27 -9 l-28 1 25 8 c14 4
26 8 28 9 1 1 2 -3 2 -9z m816 -25 c-9 -24 22 -46 57 -40 18 4 48 8 67 9 19 2
85 9 145 16 107 12 570 8 621 -6 l21 -6 -22 -23 c-25 -24 -53 -31 -147 -40
-59 -5 -368 -64 -583 -110 -66 -14 -129 -27 -140 -29 -11 -2 -40 -9 -65 -16
-25 -7 -55 -14 -66 -16 -68 -8 -98 -16 -117 -29 -18 -13 -23 -12 -49 10 -23
20 -33 23 -49 15 -10 -6 -19 -14 -20 -18 0 -4 -2 -15 -4 -25 -5 -25 35 -43 64
-28 12 7 115 16 238 21 120 6 290 14 378 20 163 9 405 3 370 -10 -11 -4 -23
-6 -26 -4 -8 4 -120 -17 -239 -45 -47 -11 -116 -22 -155 -25 -125 -10 -189
-16 -235 -23 -25 -3 -48 -6 -51 -5 -5 1 -72 -8 -235 -33 -17 -2 -57 -7 -90
-10 -32 -3 -97 -12 -144 -20 -102 -18 -139 -23 -164 -24 -13 -1 -16 -4 -10
-10 12 -13 376 -33 432 -25 23 3 73 3 110 -2 l67 -7 -95 -13 c-90 -12 -164
-20 -255 -29 -117 -11 -158 -17 -245 -36 -52 -11 -121 -25 -152 -31 -32 -7
-58 -15 -58 -19 0 -14 94 -29 225 -36 74 -3 134 -8 132 -9 -2 -2 -32 -6 -68
-10 -83 -7 -105 -10 -154 -18 -61 -11 -224 -56 -279 -78 -27 -10 -53 -17 -59
-15 -5 1 66 71 159 154 93 83 194 173 224 200 30 27 71 60 90 73 19 13 78 58
130 99 193 154 313 241 334 241 8 0 19 6 23 14 7 11 80 63 92 65 2 1 1 -6 -3
-14z m-616 -90 c-5 -14 -16 -38 -25 -55 -8 -16 -15 -38 -15 -49 0 -13 -21 -37
-57 -66 -32 -25 -61 -45 -66 -45 -4 0 1 17 12 39 11 21 26 60 32 87 7 27 18
64 26 82 12 29 17 32 58 32 43 0 44 -1 35 -25z m4811 -12 c17 -18 24 -83 35
-298 6 -118 32 -415 41 -465 3 -19 3 -33 1 -30 -7 7 -64 205 -77 265 -12 61
-37 309 -46 458 -6 103 -6 108 12 99 10 -6 25 -18 34 -29z m-4981 20 c0 -5
-16 -55 -35 -113 -53 -158 -87 -215 -184 -306 -47 -43 -82 -74 -79 -69 3 6 30
55 61 110 65 117 113 232 129 311 8 41 17 58 32 64 26 11 76 12 76 3z m-226
-50 c-28 -125 -92 -323 -124 -384 -7 -13 -51 -86 -97 -161 -83 -134 -86 -138
-136 -156 -63 -24 -117 -36 -117 -27 0 4 45 64 100 133 68 86 120 164 160 244
55 108 130 304 130 341 0 10 13 20 33 26 53 15 58 14 51 -16z m11012 -102 c17
-15 67 -53 110 -86 106 -80 194 -166 322 -310 84 -95 95 -110 52 -72 -88 76
-225 163 -366 233 -123 61 -132 68 -143 102 -6 20 -33 81 -59 134 l-49 97 51
-36 c28 -21 65 -48 82 -62z m-11246 72 c0 -18 -53 -203 -82 -287 -38 -112
-112 -272 -161 -349 -20 -31 -36 -62 -34 -68 1 -6 -39 -26 -90 -44 l-92 -34
59 75 c33 42 65 85 72 97 6 12 30 47 52 77 67 89 124 191 177 315 4 11 20 63
35 115 16 52 33 98 38 102 14 10 26 10 26 1z m5633 -47 c13 -4 17 -17 17 -59
0 -30 4 -77 10 -105 5 -27 10 -69 11 -93 3 -90 83 -636 105 -717 2 -10 -3 -1
-12 18 -24 51 -95 251 -99 280 -2 14 -16 79 -30 145 -29 131 -46 255 -70 507
l-6 58 28 -15 c15 -8 36 -16 46 -19z m-2610 -54 c-49 -50 -207 -142 -243 -142
-12 0 -43 -21 -71 -47 -52 -48 -76 -53 -41 -8 48 61 94 106 159 155 76 59 153
97 163 80 4 -6 13 -5 26 4 17 13 19 13 22 -4 2 -11 -5 -28 -15 -38z m3013
-125 c111 -162 303 -373 443 -491 47 -39 108 -91 134 -115 97 -91 197 -141
197 -99 0 18 -67 125 -248 395 -97 145 -173 265 -170 268 3 3 59 -45 124 -106
66 -62 153 -143 195 -181 80 -73 279 -197 279 -174 0 8 -50 93 -111 191 -61
97 -109 178 -107 180 2 3 24 -2 48 -9 25 -7 77 -19 117 -26 80 -14 79 -14 119
-145 24 -80 25 -85 44 -232 13 -100 -10 -287 -44 -352 -27 -51 -110 -111 -154
-111 -11 0 -36 -7 -56 -15 -29 -12 -48 -13 -99 -5 -75 12 -244 86 -309 135
-76 59 -173 160 -207 217 -17 29 -47 78 -65 108 -19 30 -33 57 -31 59 2 2 55
-41 117 -95 109 -96 223 -177 281 -202 40 -17 33 -5 -50 90 -75 85 -207 262
-303 403 -79 116 -260 407 -260 418 0 18 81 -56 116 -106z m5599 23 c21 -22
35 -43 31 -47 -3 -4 -28 14 -54 40 -28 28 -41 47 -31 47 8 0 32 -18 54 -40z
m-8354 -6 c246 -98 363 -171 494 -305 95 -96 95 -99 3 -37 -69 46 -318 172
-448 227 -89 38 -113 55 -41 30 18 -6 34 -9 37 -6 3 3 -24 15 -59 26 -49 16
-66 28 -71 44 -15 56 -7 58 85 21z m-3926 -134 c-35 -125 -88 -228 -223 -433
-43 -66 -78 -107 -105 -124 -33 -21 -38 -29 -35 -52 l4 -28 -55 17 c-88 28
-211 83 -275 125 l-59 38 28 21 c16 11 36 30 45 40 8 11 31 33 50 50 55 48
184 178 203 206 17 24 17 24 1 -10 -30 -63 -174 -269 -220 -315 -29 -28 -9
-26 37 5 56 37 229 202 229 218 0 7 3 12 8 12 4 0 12 9 17 19 6 11 27 45 48
75 21 31 51 82 66 113 22 43 37 61 60 70 17 6 31 9 31 7 0 -2 -17 -44 -39 -94
-77 -178 -178 -332 -310 -472 -52 -56 -18 -46 58 16 94 78 111 94 157 156 23
30 52 66 64 80 35 39 210 308 223 344 4 10 10 17 13 14 3 -3 -7 -47 -21 -98z
m-445 80 c0 -5 -4 -10 -10 -10 -5 0 -10 5 -10 10 0 6 5 10 10 10 6 0 10 -4 10
-10z m4125 -50 c-7 -23 4 -26 25 -7 8 6 12 8 8 3 -4 -5 -3 -18 3 -28 14 -26 3
-37 -51 -49 -45 -10 -214 -117 -273 -171 -41 -38 -90 -71 -70 -47 6 8 11 17
10 21 -3 14 83 117 137 163 43 37 199 135 214 135 2 0 0 -9 -3 -20z m2878
-205 c26 -44 32 -66 44 -185 8 -74 28 -200 45 -280 16 -80 32 -158 34 -175 5
-30 5 -30 -11 5 -9 19 -46 114 -82 210 -52 140 -73 217 -109 390 -24 118 -44
224 -44 235 0 11 21 -18 46 -65 25 -47 60 -107 77 -135z m-3623 89 c6 -42 10
-78 7 -80 -7 -7 -34 81 -43 136 -6 39 -5 43 8 32 9 -7 21 -46 28 -88z m-3480
38 c0 -5 -12 -19 -26 -33 -21 -19 -55 -63 -100 -128 -2 -1 -7 0 -13 4 -15 9
-2 30 60 105 44 53 79 76 79 52z m12980 -22 c0 -5 -4 -10 -10 -10 -5 0 -10 5
-10 10 0 6 5 10 10 10 6 0 10 -4 10 -10z m-306 -160 c43 -36 97 -82 120 -103
l41 -37 -50 19 c-27 10 -71 28 -97 40 -26 11 -65 25 -87 31 -38 10 -39 12 -69
100 l-30 90 47 -37 c25 -21 82 -67 125 -103z m-3023 75 c33 -19 63 -35 68 -35
4 0 16 -7 27 -15 13 -11 2 -9 -36 6 -97 36 -140 58 -140 68 0 18 19 12 81 -24z
m-6217 -105 c53 -79 56 -87 51 -130 -11 -78 -14 -78 -60 5 -45 80 -85 188 -85
228 0 21 0 21 19 2 10 -11 44 -58 75 -105z m9641 60 c3 -5 -1 -10 -9 -10 -9 0
-16 5 -16 10 0 6 4 10 9 10 6 0 13 -4 16 -10z m-8595 -25 c6 4 18 1 26 -6 8
-6 17 -9 21 -5 8 8 195 -91 283 -149 113 -75 373 -356 351 -378 -12 -12 -44
13 -215 166 -93 83 -126 106 -226 160 -109 58 -181 101 -155 92 33 -11 7 8
-63 45 -58 31 -66 38 -65 63 2 42 3 43 18 23 7 -10 19 -15 25 -11z m-1481 -3
c-8 -12 -38 -25 -83 -35 -74 -16 -375 -51 -382 -44 -3 2 33 14 78 27 46 12 97
28 113 35 25 11 89 19 268 34 14 1 15 -2 6 -17z m1211 -100 c-47 -18 -92 -37
-100 -42 -8 -5 -35 -22 -60 -36 -55 -33 -165 -106 -202 -134 -59 -46 -24 2 60
81 92 87 235 181 306 200 21 6 46 18 55 27 15 14 16 13 21 -24 l5 -39 -85 -33z
m-897 -94 c32 -43 81 -103 109 -133 l50 -55 -17 -73 c-9 -39 -19 -83 -22 -97
-4 -22 -9 -17 -41 45 -75 149 -161 362 -161 400 0 27 1 28 12 11 7 -11 38 -54
70 -98z m-1585 87 c-3 -3 -18 -8 -34 -11 -16 -2 -101 -27 -189 -55 -213 -67
-234 -73 -239 -68 -3 3 7 23 21 46 17 26 34 41 47 41 12 0 77 9 146 21 69 11
145 22 170 24 25 2 54 4 64 5 11 1 17 0 14 -3z m8376 -88 c51 -7 142 -10 209
-7 l117 5 0 -26 c0 -14 10 -46 23 -70 25 -46 76 -265 123 -524 14 -82 32 -172
39 -200 7 -27 14 -66 16 -85 2 -19 6 -39 10 -45 14 -21 24 -178 22 -354 l-1
-184 -31 -31 c-30 -30 -34 -31 -119 -31 -99 0 -139 11 -308 85 -156 69 -401
202 -696 379 -23 14 -61 69 -41 59 5 -2 82 -40 173 -85 169 -84 355 -153 422
-156 21 -2 38 -1 38 1 0 12 -53 64 -205 202 -202 185 -597 575 -614 608 l-12
23 31 -16 c17 -9 62 -39 100 -68 113 -86 387 -288 489 -360 258 -184 624 -394
669 -385 8 2 -52 65 -139 148 -365 343 -589 572 -748 764 -9 10 27 -11 79 -47
207 -143 422 -277 554 -346 147 -76 188 -86 194 -44 3 17 -11 31 -60 64 -35
23 -165 142 -289 263 -124 122 -280 271 -346 331 -66 61 -119 112 -117 114 2
2 46 -24 97 -57 191 -124 482 -266 610 -297 24 -6 27 -4 27 16 0 13 -6 31 -13
39 -7 9 -109 85 -227 169 -118 84 -228 164 -245 177 l-30 24 54 -21 c30 -11
95 -25 145 -32z m-7439 22 c83 -6 160 -13 173 -15 29 -6 19 -24 -14 -24 -14 0
-60 -9 -102 -19 -43 -11 -115 -22 -162 -26 -47 -4 -121 -13 -165 -21 -97 -17
-108 -17 -99 -3 5 8 0 10 -17 6 -33 -8 -341 -48 -345 -44 -2 1 46 24 105 50
234 104 328 118 626 96z m10445 -14 c7 -9 10 -18 7 -22 -8 -7 -37 15 -37 28 0
14 16 11 30 -6z m-444 -56 c19 -11 34 -25 34 -31 0 -5 -4 -8 -8 -6 -4 2 -29
12 -55 23 -26 11 -47 23 -47 28 0 14 43 7 76 -14z m-9446 -190 c23 -36 67 -95
97 -130 60 -68 83 -112 83 -156 0 -36 -31 -196 -40 -206 -13 -15 -128 212
-202 398 -31 77 -64 217 -60 254 l3 34 39 -64 c21 -35 57 -94 80 -130z m9766
140 c19 -11 34 -28 34 -36 0 -14 -3 -14 -22 1 -13 9 -33 21 -45 28 -24 12 -31
28 -12 28 7 0 27 -9 45 -21z m-8693 -30 c-28 -47 -49 -62 -187 -133 -147 -76
-252 -147 -314 -214 -38 -41 -44 -44 -58 -31 -13 14 -12 18 11 43 14 15 25 30
26 34 1 9 119 109 213 181 69 53 181 112 261 137 63 20 69 18 48 -17z m51 -24
c-4 -8 -10 -15 -14 -15 -5 0 -16 -3 -24 -6 -12 -5 -15 -2 -10 10 3 8 11 14 17
13 7 -1 14 12 16 28 3 28 4 29 12 7 5 -12 6 -29 3 -37z m-3323 4 c-6 -17 -18
-71 -26 -119 -8 -48 -33 -131 -55 -185 -42 -103 -58 -131 -46 -80 13 51 36
256 36 315 l0 55 48 26 c26 15 49 25 51 23 2 -1 -2 -17 -8 -35z m349 3 c-36
-21 -95 -52 -133 -69 l-67 -32 6 27 c12 50 22 57 121 84 134 36 149 34 73 -10z
m3151 3 c27 -14 47 -30 44 -35 -3 -5 3 -14 14 -19 29 -16 38 -13 15 5 -18 14
-18 14 6 3 58 -28 168 -107 213 -152 53 -54 56 -80 4 -29 -32 31 -57 41 -57
23 0 -10 79 -81 91 -81 4 0 9 -7 13 -15 4 -12 2 -13 -12 -6 -23 13 -101 69
-146 105 -20 16 -47 30 -59 32 -36 4 -177 72 -178 86 -1 7 -3 28 -5 46 -1 18
-5 40 -8 48 -8 20 8 18 65 -11z m2289 -51 c22 -51 24 -64 11 -64 -8 0 -17 19
-48 98 -3 6 0 12 6 12 7 0 21 -21 31 -46z m6045 5 c4 -6 5 -13 2 -16 -8 -7
-47 7 -47 18 0 13 37 11 45 -2z m-10245 -9 c14 -4 22 -8 19 -9 -39 -6 -319
-41 -369 -46 -92 -9 -326 -43 -450 -65 -58 -10 -132 -22 -165 -26 -33 -3 -91
-12 -129 -20 -38 -8 -71 -12 -73 -10 -8 8 89 53 161 75 38 12 101 26 140 32
39 6 118 21 176 35 58 13 164 28 235 32 166 12 423 12 455 2z m6077 -42 c64
-39 130 -88 277 -204 49 -39 76 -46 76 -21 0 7 -24 48 -54 92 -43 62 -51 81
-39 84 15 3 52 -34 53 -52 0 -4 22 -42 48 -85 27 -42 68 -113 92 -157 24 -44
78 -136 120 -205 73 -117 120 -207 120 -228 0 -9 76 -185 102 -235 8 -16 -1
-17 -149 -12 -173 7 -370 39 -447 75 -25 11 -47 20 -50 20 -3 0 -41 16 -83 36
-43 20 -87 40 -98 44 -52 21 -202 123 -291 198 -54 46 -109 88 -122 93 -23 9
-235 209 -229 216 4 3 406 -259 497 -325 114 -82 363 -213 377 -198 2 2 -27
28 -64 57 -64 51 -418 405 -514 514 -44 50 -34 46 25 -9 59 -55 191 -153 271
-200 44 -27 116 -74 160 -105 140 -101 364 -225 379 -210 10 9 -117 153 -209
236 -33 30 -84 82 -114 116 -29 34 -90 100 -135 147 -44 47 -105 114 -135 148
l-54 64 64 -51 c62 -49 300 -219 404 -288 50 -33 154 -78 162 -69 9 9 -118
147 -237 258 -69 63 -143 135 -165 159 -109 118 -127 139 -118 139 5 0 41 -19
80 -42z m-7880 -193 c-4 -93 -26 -192 -104 -467 -3 -10 -10 -18 -15 -18 -11 0
-9 9 20 90 39 107 47 195 34 368 -7 86 -15 169 -18 183 -5 23 -1 27 33 40 l38
15 8 -56 c5 -30 6 -100 4 -155z m12357 163 c-3 -5 -14 -2 -25 8 -10 9 -16 21
-13 26 3 5 14 2 25 -8 10 -9 16 -21 13 -26z m-11854 -23 c-13 -14 -28 -25 -33
-25 -9 0 -70 -35 -133 -77 -21 -13 -21 -13 -10 21 11 36 23 44 141 87 64 23
63 24 35 -6z m9886 -57 c54 -27 163 -77 243 -109 80 -33 163 -69 184 -80 22
-10 45 -19 53 -19 8 0 52 -15 97 -33 72 -29 163 -55 372 -107 75 -18 113 -22
120 -10 8 13 -12 39 -40 50 -22 9 -12 10 194 12 l113 1 14 -31 c32 -77 37
-145 19 -259 -31 -191 -69 -234 -247 -279 -220 -55 -621 -38 -883 39 -27 8
-93 26 -145 41 -262 73 -366 119 -512 223 -73 53 -88 72 -88 119 0 20 2 20 63
-9 58 -28 205 -67 567 -151 327 -76 392 -88 403 -77 15 15 -6 33 -73 61 -122
50 -623 303 -740 374 -91 54 -145 95 -200 150 -41 42 -72 76 -69 76 3 0 77
-34 165 -76 200 -96 575 -262 674 -298 41 -15 111 -41 155 -58 82 -31 379
-107 495 -126 90 -15 224 -19 230 -7 6 11 -104 68 -165 85 -165 47 -491 182
-693 286 -138 71 -454 257 -487 286 -21 18 90 -26 181 -74z m-8148 -126 c24
-34 101 -121 172 -192 l129 -130 -15 -48 c-8 -26 -27 -82 -42 -125 l-28 -77
-51 77 c-77 117 -115 187 -171 308 -51 114 -66 149 -60 151 2 0 -3 8 -11 17
-7 10 -11 17 -7 17 3 0 1 12 -5 28 -6 15 -13 41 -16 57 -3 17 -8 36 -12 43 -4
8 -6 25 -3 38 4 22 9 17 41 -38 20 -35 56 -91 79 -126z m4396 121 c38 -93 40
-103 27 -103 -14 0 -58 91 -67 138 -11 55 11 35 40 -35z m-556 -34 c2 -23 2
-23 -13 -5 -18 24 -20 39 -2 34 6 -3 13 -15 15 -29z m-4585 -20 c59 -11 118
-24 130 -29 22 -9 22 -9 -3 -9 -14 -1 -72 -4 -130 -7 -58 -3 -125 -5 -150 -5
-40 -1 -253 -12 -425 -23 -75 -5 -301 -42 -378 -62 -72 -18 -147 -33 -147 -28
0 2 26 17 58 33 71 36 188 76 267 91 33 6 92 19 130 28 100 23 178 29 370 31
134 1 193 -3 278 -20z m-1694 -235 c1 -210 -36 -308 -182 -481 -46 -54 -91
-109 -100 -123 -9 -13 -17 -19 -17 -12 0 19 52 196 59 202 20 16 75 108 114
190 52 109 86 213 93 285 3 28 7 64 9 80 2 17 5 46 6 65 4 79 17 -67 18 -206z
m12073 199 c10 -9 18 -20 18 -25 0 -14 -22 -9 -36 10 -25 33 -13 44 18 15z
m-9805 -208 c69 -112 333 -425 360 -425 7 0 13 -7 13 -15 0 -19 -139 -130
-149 -119 -26 29 -169 280 -216 380 -70 147 -127 308 -121 343 2 14 5 33 5 41
1 8 17 -21 36 -65 19 -43 51 -106 72 -140z m4265 134 c18 -37 22 -59 11 -59
-5 0 -18 23 -30 51 -25 57 -9 64 19 8z m-2517 -78 c71 -54 251 -231 285 -281
15 -22 18 -30 7 -21 -10 8 -17 9 -17 3 0 -6 4 -14 10 -17 5 -3 14 -15 20 -25
5 -10 -13 3 -40 30 -28 27 -57 65 -65 84 -8 19 -29 44 -46 57 l-31 22 7 -23
c6 -20 1 -18 -41 17 -27 22 -88 64 -136 92 -84 50 -88 54 -88 87 l0 35 48 -27
c45 -25 46 -25 22 -2 -14 12 -37 31 -50 41 -14 10 -7 8 15 -4 22 -13 67 -43
100 -68z m452 -36 l16 -30 -25 25 c-30 31 -68 85 -68 97 1 12 58 -57 77 -92z
m2273 32 c0 -5 -8 -7 -17 -5 -20 4 -45 47 -36 61 5 9 52 -40 53 -56z m-5288
18 c103 -7 192 -16 197 -20 28 -17 3 -23 -81 -22 -139 1 -246 -3 -318 -15 -36
-5 -87 -11 -115 -13 -27 -3 -86 -11 -130 -20 -44 -9 -96 -18 -115 -20 -19 -3
-69 -14 -110 -25 -93 -25 -91 -24 -170 -45 -35 -9 -76 -22 -90 -29 -14 -7 -47
-18 -75 -25 -27 -7 -59 -14 -70 -17 -18 -5 -18 -4 3 15 12 10 22 23 22 28 0 5
50 39 112 77 111 68 113 68 262 97 203 38 369 58 436 53 30 -3 139 -11 242
-19z m4945 -25 c12 -22 17 -42 13 -45 -8 -5 -50 63 -50 80 0 16 18 0 37 -35z
m5681 -12 c7 -7 12 -18 12 -25 0 -10 -6 -10 -25 3 -14 9 -25 20 -25 25 0 13
24 11 38 -3z m-9919 -263 c60 -80 133 -163 278 -315 l43 -46 -68 -67 -68 -67
-71 107 c-119 182 -203 328 -223 389 -23 68 -49 213 -42 232 2 7 22 -22 44
-65 22 -43 70 -119 107 -168z m-899 94 c112 -13 303 -49 295 -57 -3 -3 -94 -6
-202 -8 -109 -1 -243 -7 -298 -14 -55 -7 -107 -12 -115 -12 -8 0 -58 -6 -110
-14 -52 -8 -111 -17 -130 -20 -143 -20 -278 -48 -353 -73 -48 -16 -87 -28 -87
-25 0 3 -9 0 -20 -6 -32 -17 -14 -29 27 -19 21 4 54 11 73 14 19 3 53 10 75
15 78 17 340 33 444 27 126 -7 408 -50 506 -77 39 -11 53 -17 33 -15 -47 7
-343 19 -463 20 -240 0 -506 -48 -720 -130 -95 -37 -209 -77 -225 -80 -27 -5
-50 -19 -43 -26 8 -8 304 37 403 61 74 18 315 24 475 11 257 -19 417 -44 302
-47 -23 0 -114 -4 -202 -8 -88 -4 -167 -7 -175 -8 -29 -1 -215 -18 -250 -22
-19 -3 -55 -8 -80 -11 -172 -23 -581 -142 -723 -211 -38 -18 -47 -20 -43 -8 3
9 6 33 6 55 l0 39 93 45 c173 83 193 108 83 99 -49 -4 -43 0 142 93 114 57
192 103 192 111 0 10 -6 12 -22 7 -13 -4 -43 -8 -68 -9 -25 -1 -55 -7 -67 -14
-74 -41 -7 21 72 67 89 52 318 153 412 182 93 28 133 45 144 60 7 12 304 28
424 23 55 -2 143 -9 195 -15z m660 -146 c97 -166 285 -438 343 -496 18 -18 17
-20 -19 -73 l-38 -55 -16 33 c-9 18 -38 65 -64 103 -79 117 -247 462 -262 538
-2 10 -6 27 -9 38 -13 39 5 16 65 -88z m2103 -120 c42 -48 77 -91 77 -95 0
-18 -19 -6 -46 30 -16 20 -67 80 -114 132 -61 69 -72 85 -40 57 25 -20 80 -76
123 -124z m-157 56 c19 -22 19 -22 -3 -8 -13 8 -23 17 -23 21 0 12 6 9 26 -13z
m100 -51 c51 -54 79 -88 168 -207 8 -11 8 -13 -1 -7 -8 4 -13 2 -13 -6 0 -7
-17 7 -38 32 -20 25 -65 78 -100 117 -34 40 -58 73 -53 73 5 0 13 -4 16 -10 3
-5 12 -10 18 -10 7 0 -8 18 -33 40 -25 22 -40 40 -34 40 6 0 38 -28 70 -62z
m6514 -109 c118 -39 166 -59 199 -83 38 -28 161 -158 161 -171 0 -7 8 -16 18
-20 9 -3 53 -48 97 -100 44 -52 110 -130 148 -172 182 -209 137 -251 -288
-268 -292 -11 -442 21 -715 154 -59 29 -301 173 -297 177 4 4 241 -64 352
-101 109 -36 258 -73 385 -95 63 -11 125 -23 137 -26 17 -5 21 -2 19 12 -2 11
-23 25 -62 40 -73 28 -539 264 -521 264 8 0 47 -11 88 -25 108 -37 316 -94
454 -125 169 -37 216 -25 108 28 -121 60 -272 146 -368 211 -304 205 -318 223
-139 172 38 -11 137 -46 220 -77 180 -69 209 -77 225 -58 14 17 -21 50 -105
101 -34 21 -79 51 -102 67 -134 101 -194 147 -194 151 0 2 12 -1 28 -6 15 -5
83 -27 152 -50z m433 -133 c69 -25 217 -90 329 -144 111 -55 224 -107 251
-117 26 -10 45 -20 43 -23 -3 -2 -78 21 -168 53 -90 31 -210 69 -268 85 -162
45 -192 60 -265 128 -37 34 -63 62 -58 62 6 0 67 -20 136 -44z m-6930 -149
c52 -92 46 -96 -9 -7 -25 41 -68 102 -96 135 l-50 60 59 -61 c33 -33 76 -90
96 -127z m196 153 c11 -24 11 -24 -3 -6 -9 11 -16 24 -16 30 0 12 5 7 19 -24z
m-214 -190 c67 -105 81 -142 29 -74 -45 59 -130 144 -143 144 -5 0 -12 8 -15
18 -2 9 -8 28 -12 42 -7 25 -7 25 15 6 28 -25 27 -9 -1 24 -13 15 -1 4 25 -24
27 -28 72 -89 102 -136z m-2335 176 c0 -3 11 -55 24 -118 22 -107 41 -258 32
-258 -2 0 -12 24 -22 53 -9 28 -39 101 -67 160 l-50 108 23 22 c12 12 20 15
16 7 -4 -8 1 -5 11 7 16 20 33 30 33 19z m2164 -41 l7 -30 -22 22 c-14 14 -19
27 -15 39 8 22 21 9 30 -31z m7606 -27 c46 -26 88 -48 94 -48 5 0 7 -2 5 -5
-7 -6 -74 16 -199 64 l-105 41 60 -2 c52 -1 72 -8 145 -50z m-9395 -118 c12
-19 48 -61 79 -92 31 -32 56 -61 56 -64 0 -10 -64 -93 -72 -94 -10 0 -64 104
-96 188 -17 42 -39 102 -51 132 l-21 55 41 -45 c23 -25 52 -61 64 -80z m1445
109 l45 -2 -40 -7 -40 -7 47 -2 c26 0 50 4 53 9 4 6 25 10 47 8 49 -3 64 -24
39 -57 -17 -22 -19 -22 -237 -22 -120 1 -236 -3 -256 -8 -22 -5 -38 -5 -38 0
0 5 17 16 38 24 56 24 242 71 271 69 14 -2 46 -3 71 -5z m-817 -80 c-5 -18
-15 -36 -23 -40 -17 -8 -200 -58 -200 -54 0 3 100 67 175 111 28 17 51 27 53
23 2 -4 -1 -22 -5 -40z m6755 -35 c70 -25 156 -53 192 -61 l65 -16 43 -71 c23
-39 63 -104 87 -144 25 -41 45 -77 45 -80 0 -4 13 -27 30 -52 24 -37 27 -46
14 -50 -19 -7 -319 -3 -364 4 -19 4 -69 13 -110 21 -41 8 -91 17 -110 20 -19
3 -46 9 -60 14 -14 5 -51 17 -82 27 -32 9 -58 20 -58 24 0 4 -6 10 -12 13 -7
3 -50 21 -95 40 -107 46 -343 186 -374 223 -6 8 26 -3 72 -25 159 -75 397
-171 446 -181 26 -5 71 -16 98 -24 62 -19 65 -19 65 -2 0 19 -74 79 -210 168
-127 84 -232 156 -240 165 -3 3 24 -10 60 -30 36 -19 99 -47 140 -62 41 -14
161 -60 266 -101 105 -41 194 -74 198 -74 4 0 26 -9 49 -19 54 -25 123 -38
113 -22 -4 6 -51 43 -104 82 -53 40 -101 78 -105 85 -4 7 -51 42 -105 78 -53
36 -113 81 -132 102 l-35 36 43 -21 c23 -12 100 -42 170 -67z m2147 56 c3 -6
-1 -7 -9 -4 -18 7 -21 14 -7 14 6 0 13 -4 16 -10z m-10708 -18 c7 -4 -50 -16
-126 -25 -77 -10 -177 -28 -222 -42 -46 -13 -138 -38 -204 -55 -66 -17 -217
-61 -335 -97 -118 -37 -223 -66 -232 -65 -10 0 -27 -12 -38 -29 -12 -16 -25
-29 -29 -29 -4 0 -4 26 0 58 4 31 8 84 8 117 l1 60 193 39 c281 58 430 73 722
75 138 0 255 -3 262 -7z m10456 -147 c92 -38 165 -70 164 -71 -2 -2 -171 21
-312 43 -22 3 -44 11 -50 17 -5 6 -36 41 -67 78 l-58 66 79 -32 c43 -17 153
-62 244 -101z m-9732 0 c34 -60 68 -125 76 -144 20 -46 50 -208 57 -301 l5
-75 -15 65 c-27 120 -65 223 -143 385 -61 127 -75 164 -67 178 14 21 13 22 87
-108z m10106 89 c-9 -9 -28 6 -21 18 4 6 10 6 17 -1 6 -6 8 -13 4 -17z m-7951
-54 c21 -39 117 -161 122 -155 2 1 -11 28 -28 59 -40 70 -33 73 10 6 19 -30
30 -57 26 -66 -4 -9 -2 -22 2 -28 9 -11 22 -66 16 -66 -2 0 -21 26 -43 58 -21
31 -56 73 -76 92 -64 61 -77 85 -64 114 7 14 13 25 14 24 2 -2 11 -19 21 -38z
m-3008 -61 c42 -1 68 -3 57 -6 -143 -31 -266 -61 -390 -97 -82 -24 -213 -61
-290 -81 -77 -21 -162 -46 -189 -56 l-49 -18 -66 33 c-36 18 -77 38 -91 43
-23 9 -18 13 60 37 94 29 372 98 465 116 70 13 384 39 403 34 8 -2 48 -5 90
-5z m1873 -94 c-11 -42 -22 -80 -26 -83 -9 -9 -207 -7 -269 2 l-50 8 100 32
c97 32 170 66 229 105 16 11 31 19 33 17 2 -2 -6 -38 -17 -81z m9237 47 c3 -9
-2 -13 -14 -10 -9 1 -19 9 -22 16 -3 9 2 13 14 10 9 -1 19 -9 22 -16z m-8411
2 c-3 -3 -12 -4 -19 -1 -8 3 -5 6 6 6 11 1 17 -2 13 -5z m-1918 -324 c59 -116
99 -224 144 -383 11 -40 4 -64 -9 -25 -15 50 -115 258 -168 352 -31 54 -56
100 -56 102 0 2 -23 43 -52 90 l-51 86 18 34 18 33 44 -77 c25 -42 75 -138
112 -212z m571 234 c0 -8 -4 -14 -10 -14 -5 0 -10 4 -10 9 0 5 -3 18 -7 28 -6
16 -5 16 10 4 9 -7 17 -20 17 -27z m9569 15 c35 -12 43 -35 9 -25 -13 3 -29 6
-35 6 -7 0 -13 7 -13 15 0 18 -1 18 39 4z m-9639 -99 c0 -3 -11 -21 -25 -40
l-25 -34 0 68 0 67 25 -27 c14 -15 25 -30 25 -34z m1945 -51 c-14 -21 -35 13
-34 55 l1 41 19 -43 c11 -23 17 -47 14 -53z m-612 47 c25 -7 48 -12 51 -9 2 3
2 -4 0 -15 -5 -18 -9 -18 -87 -6 -45 8 -83 14 -84 14 -2 0 -3 7 -3 15 0 20 60
20 123 1z m-2883 -21 c-143 -29 -377 -90 -442 -116 -48 -19 -49 -19 -38 0 15
28 4 45 -41 65 -22 10 -39 20 -37 21 5 6 287 44 348 48 30 2 116 4 190 4 l135
1 -115 -23z m2081 -57 c-13 -39 -24 -54 -42 -59 -36 -10 -347 -10 -353 0 -3 5
13 12 37 15 41 7 90 19 272 69 50 14 93 25 97 26 4 0 -1 -23 -11 -51z m-1326
-28 c13 0 136 -185 199 -300 42 -78 94 -206 102 -252 l6 -33 -23 35 c-12 19
-48 85 -79 145 -32 61 -64 121 -71 135 -25 47 -128 195 -157 226 -26 29 -27
32 -13 54 13 20 16 21 19 7 2 -9 9 -17 17 -17z m-815 -76 c-69 -25 -204 -73
-300 -106 -96 -33 -192 -69 -212 -79 -21 -11 -38 -18 -38 -15 0 18 95 176 108
180 63 18 416 60 542 64 14 1 -31 -19 -100 -44z m2095 -31 c-4 -10 -16 -41
-27 -70 -20 -50 -22 -52 -66 -59 -43 -6 -287 2 -342 11 -98 17 -98 21 -5 32
118 15 324 59 383 82 60 24 66 25 57 4z m-1415 -51 c0 -4 24 -33 53 -63 34
-35 71 -89 101 -149 48 -96 96 -211 73 -176 -70 106 -153 212 -212 271 -71 72
-72 73 -56 99 15 24 41 36 41 18z m1604 -72 c90 -107 156 -204 156 -226 -1
-18 -1 -18 -15 0 -8 11 -15 16 -15 11 0 -5 -8 2 -17 15 -9 14 -37 49 -62 79
-25 30 -40 51 -33 47 21 -13 13 5 -21 48 -49 61 -76 106 -64 106 2 0 34 -36
71 -80z m-2294 -39 c-14 -5 -63 -19 -110 -31 -87 -23 -229 -87 -355 -158 l-70
-40 -55 26 c-30 14 -57 27 -58 28 -7 5 59 94 77 104 23 12 495 77 571 78 l25
0 -25 -7z m607 -87 c39 -41 52 -62 48 -75 -4 -11 -2 -19 5 -19 6 0 8 5 5 10
-3 6 -3 10 0 10 11 0 36 -71 29 -82 -4 -7 -3 -8 4 -4 11 7 16 -8 14 -44 0 -7
6 -26 14 -42 8 -15 14 -35 13 -45 0 -10 -17 16 -37 58 -20 42 -55 96 -77 121
-112 124 -115 129 -105 149 16 29 30 24 87 -37z m1413 39 c-1 -29 -51 -55
-159 -83 -68 -18 -95 -20 -159 -14 l-77 8 50 8 c160 27 269 53 305 73 28 16
40 18 40 8z m-1536 -195 c43 -55 92 -177 102 -247 9 -68 -9 -67 -32 2 -26 79
-48 119 -107 189 -52 61 -57 78 -33 104 15 16 28 7 70 -48z m2000 16 c4 -10 1
-14 -6 -12 -15 5 -23 28 -10 28 5 0 13 -7 16 -16z m-2634 2 c0 -2 -26 -14 -57
-27 -32 -13 -92 -43 -134 -66 -42 -24 -79 -43 -82 -43 -3 0 -1 17 5 37 9 33 8
39 -12 55 -12 10 -29 18 -38 18 -8 0 -12 3 -9 6 12 12 327 32 327 20z m2000
-11 c0 -29 -223 -61 -320 -47 -52 8 -50 9 40 10 71 1 248 27 278 41 1 0 2 -1
2 -4z m-1550 -82 c-1 -24 -2 -26 -11 -10 -5 9 -7 22 -4 27 10 17 15 11 15 -17z
m50 -32 c5 -11 6 -29 2 -41 -8 -21 -8 -21 -21 4 -8 13 -11 32 -8 40 8 21 14
20 27 -3z m1478 -11 c-7 -11 -18 -20 -24 -20 -6 0 -19 -9 -28 -19 -20 -22 -96
-41 -159 -40 l-42 1 55 12 c30 7 75 23 100 37 36 19 88 42 108 48 1 1 -3 -8
-10 -19z m-2103 -79 c-66 -26 -132 -51 -147 -54 -15 -4 -34 -15 -44 -24 -17
-17 -17 -16 -10 12 4 17 14 48 22 71 l16 41 141 1 142 2 -120 -49z m504 -15
c15 -57 -16 -60 -45 -4 -12 24 -13 32 -3 38 20 13 38 0 48 -34z m-119 -92 c0
-20 -7 -17 -20 6 -9 16 -8 18 5 14 8 -4 15 -12 15 -20z m-431 -8 c-10 -8 -198
-102 -195 -97 2 3 9 24 15 47 10 37 13 40 43 37 18 -2 53 0 78 6 54 11 65 12
59 7z"/>
<path d="M11260 12343 c-45 -5 -231 -60 -290 -85 -25 -11 -76 -31 -115 -45
-93 -34 -163 -73 -322 -177 -90 -59 -133 -94 -133 -106 0 -22 27 -21 80 3 116
52 160 70 295 122 279 107 573 249 574 278 1 18 -10 19 -89 10z"/>
<path d="M10266 11517 c-24 -17 -17 -51 11 -55 30 -4 49 31 27 52 -19 19 -16
19 -38 3z"/>
<path d="M10111 11461 c-13 -22 12 -61 38 -61 24 0 45 25 37 45 -3 9 0 15 9
15 7 0 16 3 18 8 3 4 -17 8 -44 9 -38 2 -51 -2 -58 -16z"/>
<path d="M9965 11423 c-11 -2 -55 -11 -99 -19 -149 -29 -312 -100 -445 -196
-85 -61 -181 -145 -181 -160 0 -4 19 1 43 11 23 10 80 30 127 46 148 48 571
263 611 311 9 11 7 14 -12 13 -13 -1 -33 -3 -44 -6z"/>
<path d="M10122 11208 c-26 -26 1 -65 38 -53 16 5 20 14 18 33 -3 30 -35 41
-56 20z"/>
<path d="M9992 11168 c-32 -32 0 -78 42 -62 30 11 14 74 -19 74 -6 0 -16 -5
-23 -12z"/>
<path d="M9825 11108 c-213 -53 -357 -116 -473 -205 -125 -96 -123 -135 4 -77
43 21 113 49 154 63 41 15 122 52 180 83 134 71 158 83 195 99 49 21 57 30 44
45 -13 16 -4 17 -104 -8z"/>
<path d="M9055 10574 c-19 -20 -16 -43 8 -58 20 -13 50 2 55 26 3 16 -23 48
-38 48 -5 0 -16 -7 -25 -16z"/>
<path d="M8967 10459 c-21 -12 -57 -80 -57 -108 0 -18 18 -31 45 -31 11 0 75
98 75 114 0 7 -31 36 -38 36 -4 0 -15 -5 -25 -11z"/>
<path d="M9130 10393 c-107 -150 -136 -263 -126 -503 3 -91 12 -187 19 -214
l13 -49 11 64 c7 35 22 134 33 219 25 179 59 343 95 456 30 93 28 84 11 84 -8
0 -33 -26 -56 -57z"/>
<path d="M8780 10411 c-48 -48 -51 -110 -6 -119 21 -4 46 15 46 35 0 8 9 26
20 40 14 18 17 30 10 43 -17 31 -40 32 -70 1z"/>
<path d="M8855 10229 c-46 -41 -63 -74 -81 -159 -17 -84 -20 -313 -5 -397 17
-90 107 -358 116 -344 4 7 4 27 1 46 -7 35 -8 654 -1 715 3 30 17 106 27 149
6 26 -21 21 -57 -10z"/>
<path d="M8632 10177 c-49 -50 -105 -172 -126 -277 -3 -14 -12 -52 -21 -85
-25 -101 -16 -277 21 -422 12 -48 21 -63 34 -63 24 0 28 20 35 190 3 80 8 159
10 175 2 17 9 71 15 120 6 50 26 159 45 244 19 85 34 156 32 157 -2 2 -22 -15
-45 -39z"/>
<path d="M14881 9016 c-31 -37 11 -101 59 -89 27 7 41 45 26 74 -14 29 -66 38
-85 15z"/>
<path d="M14658 8928 c-42 -34 -19 -100 35 -100 36 0 57 19 57 52 0 48 -55 77
-92 48z"/>
<path d="M14962 8824 c-41 -29 -23 -84 28 -84 34 0 50 17 50 52 0 21 -6 31
-26 38 -31 12 -25 13 -52 -6z"/>
<path d="M4537 8293 c-25 -21 -44 -39 -42 -42 6 -6 105 62 105 72 0 15 -18 6
-63 -30z"/>
<path d="M5786 6134 c-3 -8 -2 -13 3 -9 5 3 11 -1 14 -7 2 -7 7 -10 11 -7 8 8
-3 39 -14 39 -4 0 -11 -7 -14 -16z"/>
<path d="M5705 5657 c-39 -105 -39 -107 -21 -77 18 29 60 149 54 155 -2 2 -17
-33 -33 -78z"/>
<path d="M5870 5282 c6 -13 14 -21 18 -18 3 4 -2 14 -12 24 -18 16 -18 16 -6
-6z"/>
<path d="M6483 6840 c-64 -37 -81 -59 -22 -29 48 24 97 59 83 59 -5 0 -32 -14
-61 -30z"/>
<path d="M6525 6570 c-8 -13 5 -13 25 0 13 8 13 10 -2 10 -9 0 -20 -4 -23 -10z"/>
<path d="M6630 6560 c-9 -6 -10 -10 -3 -10 6 0 15 5 18 10 8 12 4 12 -15 0z"/>
<path d="M6328 6473 c-37 -20 -66 -38 -64 -40 6 -6 136 58 136 67 0 13 5 15
-72 -27z"/>
<path d="M6563 6263 c9 -2 25 -2 35 0 9 3 1 5 -18 5 -19 0 -27 -2 -17 -5z"/>
<path d="M6500 6210 c-45 -7 -44 -7 18 -8 36 -1 62 2 62 8 0 11 -11 11 -80 0z"/>
<path d="M11720 8086 c0 -2 8 -10 18 -17 15 -13 16 -12 3 4 -13 16 -21 21 -21
13z"/>
<path d="M14772 7468 c-21 -21 -14 -66 13 -84 50 -33 103 26 68 76 -16 22 -62
27 -81 8z"/>
<path d="M14819 7101 c-20 -16 -22 -23 -14 -47 18 -50 95 -42 95 10 0 47 -44
67 -81 37z"/>
<path d="M6946 8571 c5 -5 20 -12 34 -15 l25 -7 -25 15 c-28 17 -50 21 -34 7z"/>
<path d="M6910 8266 c0 -2 7 -7 16 -10 8 -3 12 -2 9 4 -6 10 -25 14 -25 6z"/>
<path d="M4340 7890 c0 -5 5 -10 11 -10 5 0 7 5 4 10 -3 6 -8 10 -11 10 -2 0
-4 -4 -4 -10z"/>
<path d="M7330 7676 c0 -2 7 -7 16 -10 8 -3 12 -2 9 4 -6 10 -25 14 -25 6z"/>
<path d="M6635 7820 c-8 -13 5 -13 25 0 13 8 13 10 -2 10 -9 0 -20 -4 -23 -10z"/>
<path d="M6509 7783 c-13 -17 -13 -17 6 -3 11 8 22 16 24 17 2 2 0 3 -6 3 -6
0 -17 -8 -24 -17z"/>
<path d="M6939 7550 c13 -11 28 -20 35 -20 6 0 0 9 -14 20 -33 26 -52 25 -21
0z"/>
<path d="M7220 7411 c0 -10 52 -51 65 -51 11 0 -5 19 -35 40 -17 12 -30 17
-30 11z"/>
<path d="M7265 7340 c3 -5 8 -10 11 -10 2 0 4 5 4 10 0 6 -5 10 -11 10 -5 0
-7 -4 -4 -10z"/>
<path d="M7340 7302 c0 -4 15 -22 33 -38 76 -70 91 -69 26 1 -39 43 -59 55
-59 37z"/>
<path d="M6399 7409 c-23 -19 -23 -20 -2 -10 12 6 25 16 28 21 10 16 -1 12
-26 -11z"/>
<path d="M6558 7194 c-16 -8 -28 -17 -28 -19 0 -5 70 22 79 30 10 11 -26 3
-51 -11z"/>
<path d="M7080 7152 c0 -5 8 -16 18 -24 24 -22 62 -40 62 -31 -1 11 -80 66
-80 55z"/>
<path d="M14842 6468 c-7 -7 -12 -24 -12 -38 0 -32 17 -50 47 -50 43 0 65 68
29 92 -17 12 -51 9 -64 -4z"/>
<path d="M14237 6392 c-33 -36 -8 -92 40 -92 25 0 53 30 53 57 0 46 -62 69
-93 35z"/>
<path d="M14376 6348 c-31 -44 -11 -81 45 -81 49 0 67 53 31 86 -26 23 -58 21
-76 -5z"/>
<path d="M14552 6328 c-17 -17 -15 -54 4 -72 18 -19 55 -21 72 -4 7 7 12 24
12 38 0 33 -17 50 -50 50 -14 0 -31 -5 -38 -12z"/>
<path d="M7300 6541 c0 -5 5 -13 10 -16 6 -3 10 -2 10 4 0 5 -4 13 -10 16 -5
3 -10 2 -10 -4z"/>
<path d="M6185 5970 c-19 -8 -19 -9 3 -9 12 -1 22 4 22 9 0 6 -1 10 -2 9 -2 0
-12 -4 -23 -9z"/>
<path d="M6450 5970 c20 -13 63 -13 55 0 -3 6 -21 10 -38 10 -24 0 -28 -3 -17
-10z"/>
<path d="M12355 5590 c3 -5 8 -10 11 -10 2 0 4 5 4 10 0 6 -5 10 -11 10 -5 0
-7 -4 -4 -10z"/>
<path d="M6258 5553 c12 -2 30 -2 40 0 9 3 -1 5 -23 4 -22 0 -30 -2 -17 -4z"/>
<path d="M14630 10276 c0 -9 7 -16 16 -16 17 0 14 22 -4 28 -7 2 -12 -3 -12
-12z"/>
<path d="M6573 9763 c-18 -7 -16 -23 2 -23 8 0 15 7 15 15 0 8 -1 15 -2 14 -2
0 -9 -3 -15 -6z"/>
<path d="M15521 8536 c-17 -20 -10 -67 11 -79 27 -18 68 7 68 41 0 15 -5 33
-12 40 -16 16 -53 15 -67 -2z"/>
<path d="M2665 6668 c-4 -10 -4 -26 0 -35 8 -17 8 -17 12 0 3 9 3 25 0 35 -4
16 -4 16 -12 0z"/>
<path d="M2920 4276 c0 -9 7 -16 16 -16 17 0 14 22 -4 28 -7 2 -12 -3 -12 -12z"/>
</g>
</svg>
